/* XPM */
static char *_5833654cca746cbf74db8641702903cByHWYcjs1nhI6uqx[] = {
/* columns rows colors chars-per-pixel */
"64 64 194 2 ",
"   c #000000",
".  c #14120D",
"X  c #18150F",
"o  c #1E1813",
"O  c #330D09",
"+  c #3A0F0B",
"@  c #3D120E",
"#  c #3C1613",
"$  c #371E10",
"%  c #3B1916",
"&  c #3C1818",
"*  c #2C251B",
"=  c #3E2414",
"-  c #392F35",
";  c #33303E",
":  c #401711",
">  c #411A15",
",  c #451F1A",
"<  c #412615",
"1  c #4B2615",
"2  c #442816",
"3  c #4A2917",
"4  c #44231D",
"5  c #452A19",
"6  c #4D2D1A",
"7  c #562716",
"8  c #542B17",
"9  c #5B2817",
"0  c #512E1B",
"q  c #5A2E19",
"w  c #54341F",
"e  c #5B351F",
"r  c #6A2716",
"t  c #602D1A",
"y  c #6D2C1A",
"u  c #762716",
"i  c #7B2716",
"p  c #792817",
"a  c #732A1A",
"s  c #7C2919",
"d  c #65311A",
"f  c #68321A",
"g  c #7D371A",
"h  c #472F21",
"j  c #492F21",
"k  c #442B2A",
"l  c #582F23",
"z  c #463123",
"x  c #493123",
"c  c #42312F",
"v  c #4C362B",
"b  c #4C3A29",
"n  c #543522",
"m  c #5B3622",
"M  c #5C3A23",
"N  c #52392B",
"B  c #593A2A",
"V  c #533D31",
"C  c #5E3F32",
"Z  c #622C24",
"A  c #672C29",
"S  c #682C29",
"D  c #613526",
"F  c #6E3D31",
"G  c #554135",
"H  c #5B4234",
"J  c #5D4B35",
"K  c #67432A",
"L  c #6F452B",
"P  c #78492C",
"I  c #604133",
"U  c #6E4D33",
"Y  c #694E3B",
"T  c #6D563D",
"R  c #6F583D",
"E  c #79563A",
"W  c #7C573B",
"Q  c #2F3141",
"!  c #303241",
"~  c #373947",
"^  c #383A47",
"/  c #383A48",
"(  c #645247",
")  c #735644",
"_  c #6E5D55",
"`  c #715F54",
"'  c #77645A",
"]  c #7C655A",
"[  c #796563",
"{  c #7A6965",
"}  c #842716",
"|  c #892716",
" . c #862817",
".. c #892817",
"X. c #822C1A",
"o. c #8C2E1B",
"O. c #912E1B",
"+. c #80371A",
"@. c #8E301C",
"#. c #81381A",
"$. c #8A3A1A",
"%. c #94311D",
"&. c #81512F",
"*. c #885835",
"=. c #95603C",
"-. c #99653E",
";. c #BA6D3F",
":. c #8A6444",
">. c #986845",
",. c #91714E",
"<. c #846855",
"1. c #9B7652",
"2. c #A26B43",
"3. c #AC7347",
"4. c #B47347",
"5. c #B67849",
"6. c #BC7C4C",
"7. c #B17B50",
"8. c #85746D",
"9. c #847775",
"0. c #887772",
"q. c #897A73",
"w. c #927F76",
"e. c #C67A46",
"r. c #C47B48",
"t. c #C47C4B",
"y. c #AD865D",
"u. c #AF885D",
"i. c #BB8557",
"p. c #B2855C",
"a. c #BB8A5F",
"s. c #8D807B",
"d. c #968379",
"f. c #B38B62",
"g. c #BB8B61",
"h. c #BC9065",
"j. c #C3814E",
"k. c #C9814F",
"l. c #C58453",
"z. c #CB8652",
"x. c #CC8954",
"c. c #C5895F",
"v. c #D28D56",
"b. c #D0925E",
"n. c #C19367",
"m. c #CD9969",
"M. c #D19463",
"N. c #D39866",
"B. c #D59F6E",
"V. c #D5A06F",
"C. c #D8A16F",
"Z. c #D6A170",
"A. c #D8A271",
"S. c #938682",
"D. c #978C87",
"F. c #9A8D86",
"G. c #998B8B",
"H. c #A2938C",
"J. c #A49A96",
"K. c #AB9F9E",
"L. c #B0A49D",
"P. c #A39DA0",
"I. c #B3AAA5",
"U. c #B4AAA6",
"Y. c #B3ACA8",
"T. c #B7B1B0",
"R. c #BBB4B2",
"E. c #BEB5B1",
"W. c #C2B7B5",
"Q. c #C3B9B6",
"!. c #C4BDBB",
"~. c #C6C0BD",
"^. c #C6C0BE",
"/. c #C5C2C3",
"(. c #CBC5C3",
"). c #C4C5C8",
"_. c #D0C7C3",
"`. c #D2CAC6",
"'. c #D3CDCA",
"]. c #D4D0CE",
"[. c #D9D5D3",
"{. c #DBD8D6",
"}. c #E5E3E2",
"|. c #E8E7E7",
" X c #EDECEC",
".X c #F0EFEF",
"XX c #F0F0EF",
"oX c #F0EFF0",
"OX c gray95",
"+X c #F3F2F3",
"@X c #F3F3F4",
"#X c #F5F5F5",
"$X c #F7F8F8",
"%X c #F8F9F9",
/* pixels */
"OXOXOXOXOXOXOXOXOXOX@X].F.F.F.F.F.F.F.F.F.F.F.F.F.F.F.F.F.F.F.F.F.F.F.F.F.F.F.F.F.F.F.F.F.F.F.F.F.F.F.F.H.{.#XOXOXOXOXOXOXOXOXOX",
"OXOXOXOXOXOXOXOXOXOX#XY.< < < < < < < < < < < < < < < < < < < < < < < < < < < < < < < < < < < < < < < < x !.#XOXOXOXOXOXOXOXOXOX",
"OXOXOXOXOXOXOXOXOXOX#XU.< < < < < < < < < < < < < < < < < < < < < < < < < < < < < < < < < < < < < < < < j !.#XOXOXOXOXOXOXOXOXOX",
"OXOXOXOXOXOXOX#X#X#X%XT.< = < = = = = = = = = = = < = = = = = = = = < < = = = < < < < < < < < < < = = = h !.%X#X#X#X@XOXOXOXOXOX",
"OXOXOXOXOXOX[.^././.(.H.8 8 8 8 8 8 8 8 8 8 8 8 8 8 8 8 8 8 8 8 8 8 8 8 8 8 8 8 8 8 8 8 8 8 8 8 8 8 8 7 w J.(././.(.|.OXOXOXOXOX",
"OXOXOXOXOXOXs.5 x x z m $.$.$.$.$.$.$.$.$.$.$.$.$.$.$.$.$.$.$.$.$.$.$.$.$.$.$.$.$.$.$.$.$.$.$.$.$.$.$.$.g x x x x V /.#XOXOXOXOX",
"OXOXOXOXOXOXq.= < < = q $.$.$.$.$.$.$.$.$.$.$.$.$.$.$.$.$.$.$.$.$.$.$.$.$.$.$.$.$.$.$.$.$.$.$.$.$.$.$.$.g 1 = < = j ^.#XOXOXOXOX",
"OXOXOXOXOXOXq.= < < = 8 $.$.$.$.$.$.$.$.$.$.$.$.$.$.$.$.$.$.$.$.$.$.$.$.$.$.$.$.$.$.$.$.$.$.$.$.$.$.$.$.g 3 < < < x ^.#XOXOXOXOX",
"OXOXOXOXOXOXq.= < < = 8 $.$.$.$.$.$.$.$.$.$.$.$.$.$.$.$.$.$.$.$.$.$.$.$.$.$.$.$.$.$.$.$.$.$.$.$.$.$.$.$.+.3 = < < x ^.#XOXOXOXOX",
"OXOXOXOXOXOXq.= < < = 8 $.$.$.$.$.$.$.$.$.$.$.$.$.$.$.$.$.$.$.$.$.$.$.$.$.$.$.$.$.$.$.$.$.$.$.$.$.$.$.$.+.3 = < < x ^.#XOXOXOXOX",
"OXOXOXOXOXOXq.= < < = q $.$.$.$.$.$.$.$.$.$.$.$.$.$.$.$.$.$.$.$.$.$.$.$.$.$.$.$.$.$.$.$.$.$.$.$.$.$.$.$.#.3 < < < x ^.#XOXOXOXOX",
"OXOXOXOXOXOXq.= < < = q $.$.$.$.$.$.$.$.$.$.$.$.$.$.$.$.$.$.$.$.$.$.$.$.$.$.$.$.$.$.$.$.$.$.$.$.$.$.$.$.#.3 = < < x ^.#XOXOXOXOX",
"OXOXOXOXOXOXq.= < < = q $.$.$.$.$.$.$.$.$.$.$.$.$.$.$.$.$.$.$.$.$.$.$.$.$.$.$.$.$.$.$.$.$.$.$.$.$.$.$.$.#.3 = < = x ^.#XOXOXOXOX",
"OXOXOXOXOX@Xq.= < < < 6 f f f f f d f f f d d d d d d d d d d d d d d d d d d d d d d d d d d d d d d d q 2 < < = x ^.#XOXOXOXOX",
"OXOXOXOXOX@Xq.= < < < < < = = = = = = = = = = = = = = = = = = = = = = = = = = = = = = = = = = = = = = = = < < < = x ^.#XOXOXOXOX",
"OXOXOXOXOXOXq.= < < < < < < < < < < < < < < < < < < < < < < < < < < < < < < < < < < < < < < < < < < < < < < < < = x ^.#XOXOXOXOX",
"OX#X#X#X#X$Xq.= < < < < = = = = = = = = = = = = = = = = = = = = = = = = = = = = = = = = = = = = = = = = = < < < = x /.%X#X#X@X@X",
"}.Q.E.E.E.E.] 2 3 3 3 M U U U U U U U U U U U U U U U U U U U U U U U U U U U U U U U U U U U U U U U U K 2 2 2 < x H.Q.W.W.E.[.",
"_.C 6 0 6 6 6 < < < = W Z.Z.Z.Z.Z.Z.Z.Z.Z.Z.Z.Z.Z.Z.Z.Z.Z.Z.Z.Z.Z.Z.Z.Z.Z.Z.Z.Z.Z.Z.Z.Z.Z.Z.Z.Z.Z.Z.V.A.f.5 < < < < 6 6 6 6 3 G.",
"`.I 6 0 8 6 3 = < = = W V.B.B.B.B.B.B.B.V.V.V.V.B.B.B.B.B.B.B.B.B.B.B.B.B.B.B.B.B.B.B.B.B.B.B.B.B.B.B.V.a.5 = < = < 6 6 6 6 3 F.",
"'.I 8 0 8 6 3 = = = = E Z.B.V.V.B.V.V.V.V.Z.Z.Z.A.A.Z.B.B.B.B.B.B.B.B.B.B.B.Z.C.A.A.Z.B.B.B.B.B.B.B.B.Z.p.2 = = = < 6 6 6 8 3 F.",
"'.I 8 0 8 6 w w m m e :.V.B.B.V.B.V.V.V.Z.n.u.u.p.p.n.B.B.B.B.B.B.B.B.B.B.m.f.u.p.p.f.m.B.B.B.B.V.B.B.Z.g.M w w w 5 6 8 8 8 3 F.",
"'.I 8 0 8 3 =.j.j.j.j.l.B.V.V.V.V.B.V.V.A.T . . . . ) B.B.B.B.V.B.B.B.B.V.f.* . . . * f.Z.B.B.B.B.V.V.B.N.l.l.l.i.2.M 6 8 8 3 F.",
"'.I 8 8 0 6 2.x.x.x.z.x.B.V.B.V.B.B.V.V.A.J         T B.B.B.B.B.B.V.V.B.V.u.X       o f.A.V.V.B.B.B.V.V.N.x.x.x.x.z.L 6 8 0 3 F.",
"'.I 8 0 0 6 2.x.x.x.z.x.B.B.B.V.Z.Z.V.V.A.J         T B.B.B.B.B.B.V.B.B.V.u.X       o f.A.V.V.V.V.B.V.V.N.z.z.x.x.l.L 6 8 8 3 F.",
"'.H 8 8 8 3 2.x.x.x.z.x.B.V.V.B.V.Z.V.V.A.J         T B.B.B.B.V.B.B.B.B.V.u.X       o f.Z.V.V.V.V.V.V.V.N.z.x.x.x.z.L 6 8 8 6 F.",
"'.H 8 8 0 3 2.x.x.x.z.x.B.B.V.V.B.V.V.V.A.J         T B.B.B.B.B.B.V.B.B.V.u.X       o f.Z.V.V.V.V.B.B.V.N.z.z.x.x.z.L 6 8 0 6 F.",
"`.H 6 8 0 3 2.x.x.x.z.x.B.V.V.V.V.V.V.V.A.J         T B.B.B.V.V.V.V.V.B.V.u.X       o f.A.V.B.B.B.B.B.B.N.z.x.x.x.z.L 6 8 8 6 F.",
"`.C 8 8 0 3 2.x.x.x.z.x.B.V.V.V.V.Z.V.V.A.J         R B.B.B.V.V.V.V.V.B.A.u.X       o f.Z.B.B.B.B.B.B.V.N.z.x.x.x.z.L 6 8 8 6 F.",
"`.B 3 6 6 3 2.x.x.x.z.x.B.V.V.V.V.V.V.V.A.J         T B.B.B.B.V.V.V.V.B.A.u..       o f.Z.V.B.B.B.B.V.V.N.z.x.x.x.z.K 1 3 3 1 F.",
"[.8.] ] ] ] ,.=.-.-.>.7.V.B.V.V.V.V.V.V.Z.:.b b b b ,.B.V.V.V.V.V.V.V.V.Z.h.J b b b J n.Z.V.V.V.V.V.V.V.n.2.2.2.2.>.<.] ] ] ] U.",
"OX X.X.X.X X0.= = = = E V.V.V.V.V.V.V.V.B.V.Z.Z.Z.Z.Z.B.B.B.V.V.V.B.V.V.V.Z.Z.V.V.Z.V.V.B.V.V.V.B.V.B.A.p.2 = < = z !.OX X X XXX",
"OXOXOXOXOXOXq.= < < = E V.V.V.V.B.V.V.V.V.V.B.V.B.B.B.B.B.B.B.V.V.B.B.V.B.B.B.B.B.B.B.V.B.B.B.B.B.V.V.A.p.= < < = x ^.#XOXOXOXOX",
"OXOXOXOXOXOX8.$ = = $ E A.C.Z.Z.Z.Z.Z.Z.Z.V.B.V.V.V.V.V.B.V.V.V.V.V.V.V.V.V.B.B.B.B.B.V.V.V.V.V.Z.V.Z.A.p.= = = = h ^.#XOXOXOXOX",
"OXOXOXOXOXOXJ.` ' ` _ <.p.p.p.y.a.M.M.M.M.N.B.B.B.B.B.B.V.V.V.B.V.B.V.V.V.V.B.B.B.B.B.N.M.M.N.M.a.p.p.a.1.( _ ` ` ] '.#XOXOXOXOX",
"OXOXOXOXOXOXoX X X XoXI.5 2 5 2 &.e.e.e.e.b.V.B.B.B.V.B.B.B.V.V.V.B.V.B.B.B.B.B.V.B.B.b.k.z.z.6.M 5 6 3 N Q. X X X XOXOXOXOXOXOX",
"OXOXOXOXOXOXOXOXOXOX#XI.< < < = &.t.e.e.e.M.V.B.B.B.V.B.V.V.V.V.B.B.V.B.B.B.V.V.V.V.B.b.z.z.z.6.w = < < x ^.#XOXOXOXOXOXOXOXOXOX",
"OXOXOXOXOXOXOX@X@X@X#XI.2 < = = &.t.e.e.e.M.Z.V.V.Z.Z.Z.Z.Z.Z.Z.Z.Z.Z.Z.Z.Z.Z.Z.Z.Z.V.b.z.z.x.6.n = < = x ^.#X#X#X#XOXOXOXOXOXOX",
"OXOXOXOXOXOX}.[.[.[.{.H.1 1 1 1 P ;.;.;.;.l.c.c.c.c.c.c.c.c.c.c.c.c.c.c.c.c.c.c.c.c.c.t.r.t.t.4.e 1 1 1 n L.'.'.'.]. XOXOXOXOXOX",
"OXOXOXOXOXOXS.N V V V D } } } }  .o.o.o.o.o.o.o.o.o.o.o.o.o.o.o.o.o.o.o.o.o.o.o.o.o.o.o.o.o.@.o. .} } } s n v v v G (.#XOXOXOXOX",
"OXOXOXOXOXOX0.= = = = 9 | | | | | | | | | | | | | | | | | | | | | | | | | | | | | | | | | | | | | | | | } 1 = = = h !.#XOXOXOXOX",
"OXOXOXOXOXOX0.= < < = 9 | | | | | | | | | | | | | | | | | | | | | | | | | | | | | | | | | | | | | | | | } 1 = = = x !.#XOXOXOXOX",
"OX X X X X X8.= 2 2 < 9 ..| | ..| | | | | | | | | | | | | | | | | | | | | | | | | | | | | | | | | | ....} 1 < < < j Q. X X X X X",
"].{ _ _ _ _ F u p p i p t t t t a | | | | | | | | | | | | | | | | | | | | | | | | | | | | | | i 9 7 7 7 7 r u i i a ) ` _ _ _ I.",
"(.x = = = = r | | | | X.8 6 6 6 y | | | | | | | | | | | | | | | | | | | | | | | | | | | | | | i 2 = = = < u | | | } 1 = = = $ S.",
"(.v = < < < r | | | | X.8 6 8 6 y | | | | | | | | | | | | | | | | | | | | | | | | | | | | | | i 2 < < = < u | | | } 7 < = < = S.",
"(.v = < < = r O.O.%.%.$.0 8 8 6 y | | | | | | | | | | | | | | | | | | | | | | | | | | | | | | i 1 < < = < X.%.%.O...7 = < < = S.",
"(.v = < < < P t.t.k.z.2.8 6 6 6 y | | | | | | | | | | | | | | | | | | | | | | | | | | | | | | i 2 < < = 2 2.k.t.t.4.w = = < = S.",
"(.v = < < < *.v.x.x.v.2.8 6 6 6 y ..| | | | | | | | | | | | | | | | | | | | | | | | | | | | | i 2 < < = 2 3.x.x.x.j.m = < < = S.",
"(.v = < < < *.v.x.x.v.2.6 6 6 6 y | | | | | | | | | | | | | | | | } | | | | | | | | | | | | | i 2 = < = 2 3.x.x.x.j.m = < < = S.",
"(.v = = = = *.v.x.x.v.2.6 6 6 6 a | ..................| ........| | | | ..| | | | | | | | | | i 1 = < = 2 3.v.x.x.j.m = = = $ S.",
"'.( H H H H :.j.6.6.6.*.6 6 6 6 l S S A S S S S S S S S S S S S S S S S S S A A A A A A A A S Z 2 < < < 2 -.5.5.5.4.Y G H H G J.",
"oX}.}.}.}.}.d.m m m n 0 6 6 6 6 c Q Q ; ! ; ! ! ! ! ! ! ! ! ! ! ! ! ! ! ! ! ! ! ! ! ! ! ! ! ! ; < < < < < 5 5 5 5 v R.}.}.}.}. X",
"OXOXOXOX@X#Xw.3 6 6 8 6 6 6 6 6 c Q Q Q ! Q ! ! ! ! ! ! ! ! ! ! ! ! ! ! ! ! ! ! ! ! ! ! ! ! ! ; < < < < < < < < = h ^.#XOXOXOXOX",
"OXOXOXOXOXOXw.3 6 8 6 6 6 6 6 6 c Q Q ! Q Q ! ! ! Q ! ! ! ! ! ! ! ! ! ! ! ! ! ! ! ! ! ! ! ! ! ; < < < < < < < = = h ^.#XOXOXOXOX",
"OXOXOXOXOXOXd.n B B B n 8 6 6 8 c ; ; ; ; ; ; ; ; ; ~ / / ^ ^ ^ ^ ~ ^ ^ / ~ ; ; ; ; ; ; ; ; ; - < < < < < 5 x z h b /.#XOXOXOXOX",
"OXOXOXOXOXOX{.(.(.(.`.S.> : # : # & & % % % % & & % 9.).).).).).).).).).).P.k & & % & & & & & & @ @ @ @ 4 J.(././.(. XOXOXOXOXOX",
"OXOXOXOXOXOX#X#X#X#X$XK.# @ @ @ @ @ @ @ @ @ @ @ @ @ G.OX#X#X#X#X#X#X#X#X#X/.4 + @ @ @ @ @ @ @ @ @ @ @ @ , Q.%X#X#X#XOXOXOXOXOXOX",
"OXOXOXOXOXOXOXOXOXOX#XK.# @ @ @ @ @ @ @ @ @ @ @ @ @ G.OXOXOXOXOXOXOXOXOX@X^.4 @ @ @ @ @ @ @ @ @ @ @ @ @ , W.#XOXOXOXOXOXOXOXOXOX",
"OXOXOXOXOXOXOXOXOXOX#XK.# @ @ @ @ @ @ @ @ @ @ @ @ @ G.OXOXOXOXOXOXOXOXOX#X/.4 @ @ @ @ @ @ @ @ @ @ @ @ @ , W.#XOXOXOXOXOXOXOXOXOX",
"OXOXOXOXOXOXOXOXOXOX#XK.# @ @ @ @ @ @ @ @ @ @ @ @ + G.OXOXOXOXOXOXOXOXOX#X/.4 @ @ @ @ @ @ @ @ @ @ @ @ @ , W.#XOXOXOXOXOXOXOXOXOX",
"OXOXOXOXOXOXOXOXOXOX#XK.# @ @ @ @ @ @ @ @ @ @ @ @ + G.OXOXOXOXOXOXOXOXOX#X/.4 @ @ @ @ @ @ @ @ @ @ @ @ @ , W.#XOXOXOXOXOXOXOXOXOX",
"OXOXOXOXOXOXOXOXOXOX#XJ.@ + + @ @ + + + + + + + + O D.OXOXOXOXOXOXOXOXOX#X/.4 + + + + + @ @ @ @ @ @ @ + > W.#XOXOXOXOXOXOXOXOXOX",
"OXOXOXOXOXOXOXOXOXOX#XQ.[ [ [ [ [ [ [ [ [ [ [ [ [ [ T.OXOXOXOXOXOXOXOXOX@X[.8.[ [ [ [ [ [ [ [ [ [ [ [ [ { '.#XOXOXOXOXOXOXOXOXOX"
};
