/* XPM */
static char *a1cda7e8deb948dabd030dfa06c9e098tZPX9BZTVsKdU8hu[] = {
/* columns rows colors chars-per-pixel */
"64 64 57 1 ",
"  c #000000",
". c #090807",
"X c #070708",
"o c #090909",
"O c #160E09",
"+ c #190F09",
"@ c #1B100A",
"# c #1F1712",
"$ c #1F1812",
"% c #341B0F",
"& c #211610",
"* c #211913",
"= c #2A1F18",
"- c #351E12",
"; c #3E2414",
": c #342318",
"> c #3B2619",
", c #3F291B",
"< c #412615",
"1 c #442816",
"2 c #442918",
"3 c #4E2D1A",
"4 c #502E1B",
"5 c #55311C",
"6 c #5E361E",
"7 c #533421",
"8 c #633921",
"9 c #6B3C23",
"0 c #713F24",
"q c #724025",
"w c #7A4327",
"e c #7B4627",
"r c #7B4629",
"t c #7C4428",
"y c #7F4629",
"u c #7B492B",
"i c #7D4A2B",
"p c #7E4B2C",
"a c #75655E",
"s c #7A695F",
"d c #80472A",
"f c #81492A",
"g c #844B29",
"h c #874E2B",
"j c #824B2C",
"k c #814E2E",
"l c #864E2D",
"z c #894E2B",
"x c #8C4F2B",
"c c #8C522D",
"v c #93562F",
"b c #8E5330",
"n c #8F5430",
"m c #935731",
"M c #945730",
"N c #965830",
"B c #955A33",
/* pixels */
"asssssssssssssssssssssssssssssssssssssssssssssssssssssssssssssss",
"%;;;;;;;;;;;;;;;;;;;;;;;;;;;;;;;;;;;;;;;;;;;;;;;;;;;;;;;;;;;;;;;",
"-<<<<<<<<<<<<<<<<<<<<<<<<<<<<<<<<<<<<<<<<<<<<<;;<<<<<<<<<<<<<<<<",
"-<<<11111111111111111111111111111111111111111111111111111111<<<<",
"-<<18qq00000qq00000000qqqq00qq00000q0000qqq000000000qqq00q0q2<<<",
"-<<10yyyyyyyyyyyyyyyyyyyyyyyyyyyyyyyyyyyyyyyyyyyyyyyyyyyyyyy3<<<",
"-<<1qyyyrrrryyyyyyyyyyyyyyyyyyyyyyyyyyyyyyyyyyyyyyeeeeeeeeyy3<<;",
"-<<1wffffiiiyyyyeqqqqqqqqqqqqqqqqqqqqqqqqqqqqqqqdyyyifiiyeyy3<<<",
"-<<1pBBBmmmMcfyd9<<111<<<<<11<<<<<<<<<<<<<1<<1<6xzzzvMMvheyy3<<;",
"-<<1pBBBBmmBcfyd9<<<<<<<<<<<<<<<<<<<<<<<<<<<<<<6xzzzvBMBhwyy3<<;",
"-<<1kBBBBBBBcfff9<<<111111111111<1<<1<<<11111<<6xzzzvBBBhwyy3<<;",
"-<<2kBBBmmmmheee9>>>>>>>>>>>>>>>>>>>>>>>>>>>>>>5gfggcmvMheyy3<<;",
"-<<1pmmmlfff8223,oooooooooooooooooooooooooooooX&3233qfiiyryy3<<;",
"-<<1immmkyyd5;<<:X                             +1<<<9eerryyy3;<;",
"-<<2immmlyyf5;<1>X                             @2<<<9yrrrrry3;;;",
"-<<1unbmjrif7:>>:X                             O,>>>9yrrryyy3;;;",
"-<<<9iyf6335=oooo                               oo.o24439yyy3<<;",
"-<<<9yry5;;1$                                       ;<<<9yyy3<<;",
"-<<<9rry5;<1*                                       ;1<<9yyy3<<;",
"-<<<9yyy5;<1*                                       ;1<<9yyy3<<;",
"-<<<9yyy5;<1*                                       ;1<<8yrr3<<;",
"-<<<9yry5;<1*                                       ;1<<8yyy3<<;",
"-<<<9yry5;<1*                                       ;1<<9yyy3<<;",
"-<<<9yyy5;<2*                                       ;1<<9yyy3<<;",
"-<<<9yyy5;<2*                                       ;1<<8yyy3<<;",
"-<<19yyy5;<2*                                       ;1<<8yyy3<<;",
"-<<<9yyy5;<2*                                       ;1<<8yyy3;;;",
"-<<<9yyy5;<2*                                       ;1<<8yyy3<<;",
"-<<<9yry5;<2*                                       ;1<<9yyy3<<;",
"-<<<9yry5;<2*                                       ;1<<9yyy3<;;",
"-<;<9yry5;<2*                                       ;1<<9yyy3<<;",
"-<<<9yyy5;<2*                                       ;1<<9yyy3<<;",
"-<<<9yry5;<2*                                       ;1<<9yyy3<<;",
"-<<<9yry5;<1*                                       ;1<<9yyy3<<;",
"-<<<9yyy5;<1*                                       ;1<<8yyy3<<;",
"-<<<9yyy5;<1*                                       ;1<<8yyy3<<<",
"-<<<9yyy5;<1*                                       ;1<<8yyy3<<;",
"-<<<9yyy5;<2*                                       ;1<<8yyy3<<;",
"-<<<9yyy5;<2*                                       ;1<<8yyy3;;;",
"-<<<9yyy5;<1*                                       ;1<<8yyy3;;;",
"-<;<9yyy5;<1*                                       ;1<<9yyy3<<;",
"-<<<9yyy5;<2*                                       ;1<<9yyy3<<<",
"-<;<9yyy5;<2*                                       ;1<<9yyy3<<;",
"-<;<9yyy5;<2*                                       ;1<<8yyy3<<;",
"-<<<9yyy5;<2*                                       ;1<<8yry3<<;",
"-<<19yyy5;<2*                                       ;1<<9yrr3<<;",
"-<<<9yyy5;<1*                                       ;1<<9yrr3<<;",
"-<<<9yyy5;<1*                                       ;1<<9yyy3<<;",
"-<<<9yyy5;<1*                                       ;1<;9yyy3;<;",
"-<<<9yyy5;<1*                                       ;1<<8yyy3<<;",
"-<<<9yyy5;<2*                                       ;1<<8yrr3<<;",
"-<<<9yyy5;<1*                                       ;1<<8yrr3<<;",
"-<<<9yry5;<1*                                       ;1<<9yyr3<<;",
"-<<<9yry5;<1*                                       ;<<<9yrr3<<;",
"-<;<9yry5;<2*                                       ;1<<9yyy3<<;",
"-<<<9yyy5;<1*                                       ;1<<9yry3<<;",
"-<<19yyy5;<2*                                       ;11<9yrr3;;;",
"-<<<9qqq5;<2*                                       ;1<<8qqq2;;;",
"-<<<35552<<1$                                       ;11<35551<;;",
"-<<<35551<<1$                                       ;11<35551<<;",
"-<<<45552<<2#                                       ;1<<35551<<;",
"-<<<45552<<2*                                       ;11<35551<<;",
"-<<<35552<<2$                                       ;11<35552<;;",
"-<<135552<<2$                                       >11135552<;;"
};
