/* XPM */
static char *_ef51a76402d4f969d91ef930bf8898fKOgrlr7fTrZW8YGN[] = {
/* columns rows colors chars-per-pixel */
"64 64 122 2 ",
"   c #213122",
".  c #130E0C",
"X  c #17100D",
"o  c #1B110D",
"O  c #24140D",
"+  c #2B160D",
"@  c #34190E",
"#  c #3C1C0E",
"$  c #441E0E",
"%  c #4D210F",
"&  c #55240F",
"*  c #5B250F",
"=  c #502E0F",
"-  c #66270F",
";  c #6A290F",
":  c #742D0F",
">  c #7C2F0F",
",  c #6D360E",
"<  c #662810",
"1  c #6F2C10",
"2  c #722B10",
"3  c #7C2F10",
"4  c #7E3010",
"5  c #664515",
"6  c #7D4610",
"7  c #785D1D",
"8  c #85320F",
"9  c #822F10",
"0  c #843110",
"q  c #8C3410",
"w  c #863810",
"e  c #923510",
"r  c #9B3711",
"t  c #973811",
"y  c #9E3911",
"u  c #A33A11",
"i  c #AC3D11",
"p  c #B53F12",
"a  c #B93F12",
"s  c #8A5715",
"d  c #AE4011",
"f  c #B44011",
"g  c #BC4311",
"h  c #B84A11",
"j  c #AE5610",
"k  c #8F671E",
"l  c #877025",
"z  c #8F7626",
"x  c #8E7A28",
"c  c #C44512",
"v  c #CA4512",
"b  c #CF4A12",
"n  c #D44713",
"m  c #D44912",
"M  c #DA4A12",
"N  c #DC5B12",
"B  c #E44D13",
"V  c #ED4E13",
"C  c #F24F13",
"Z  c #E75112",
"A  c #ED5213",
"S  c #F45213",
"D  c #FB5513",
"F  c #FC5713",
"G  c #F95114",
"H  c #FE5214",
"J  c #FB5B13",
"K  c #FB5C13",
"L  c #D06311",
"P  c #CB7513",
"I  c #F56512",
"U  c #FB6012",
"Y  c #FB6412",
"T  c #FA6A12",
"R  c #FB6C12",
"E  c #E17C10",
"W  c #FB7312",
"Q  c #FC7312",
"!  c #FB7612",
"~  c #F27F12",
"^  c #FC7A12",
"/  c #FC7B12",
"(  c #FB7D12",
")  c #FC8312",
"_  c #FC8712",
"`  c #FC8812",
"'  c #FC8C11",
"]  c #FC8C12",
"[  c #EA9312",
"{  c #FC9012",
"}  c #FD9312",
"|  c #FC9512",
" . c #FC9712",
".. c #FC9C11",
"X. c #FD9F12",
"o. c #FDA211",
"O. c #FDA411",
"+. c #FDA912",
"@. c #FDAC11",
"#. c #FDAD12",
"$. c #F0A81D",
"%. c #FDB011",
"&. c #FEB512",
"*. c #FEB612",
"=. c #FEB816",
"-. c #FAB71B",
";. c #FEBC1C",
":. c #DE9821",
">. c #FEBF21",
",. c #F2BA2E",
"<. c #E9B230",
"1. c #FEC225",
"2. c #FEC82F",
"3. c #EFC13A",
"4. c #F9C630",
"5. c #FECB34",
"6. c #F4C439",
"7. c #F4CA3E",
"8. c #FCCE3C",
"9. c #FED23E",
"0. c #F9CF40",
"q. c #FED340",
/* pixels */
"                                                                                                                                ",
"                                                      # y - O                                                                   ",
"                                                      + n H n 0 @                                                               ",
"                                                        9 H H H M 0 +                                                           ",
"                                                        $ V H H H H n 2 o                                                       ",
"                                                        O M H H H H H G a $                                                     ",
"                                                        o v H H H H H H H B ; .                                                 ",
"                                                        o v H H H H H H H H G e o                                               ",
"                                                        o v H H H H H H H H H G u o                                             ",
"                                                        O m H H H H H H H H H H H r X                                           ",
"                                                        $ V H H H H H H H H H H H G 3                                           ",
"                                                        e H H H H H H H H H H H H H V %                                         ",
"                                                      # B H H H H H H H H H H H H H H g o                                       ",
"                                                    X i H H H H H H H H H H H H H H H G -                                       ",
"                                                    3 G H H H H H H H H H H H H H H H H g o                                     ",
"                                                  - V H H H H H H H H H H H H H H H H H V $                                     ",
"                                                ; V H H H H H G H H H H H H G H H H H H H >                                     ",
"                                            X 0 C H H H H H G G H H H H H H G G H H H H H i                                     ",
"                                          o r G H H H H H H G H H Q ^ H H G G H H H H H H c o                                   ",
"                                        + i H H H H H H H H H F _ %.^ H H H H H H H H H H n o                                   ",
"                                      @ c H H H H H H H H H J } &.#.Y H H H H H G G H H H n o             .                     ",
"                                    @ v H H H H H H H H H K  .&.&.X.D H G H H H G G H H H c X         . - q .                   ",
"                                  + c H H H H H H H H G J  .&.&.&.} G H G G H H H H H H H y         o e S v o                   ",
"                                O p H H H H H H H H H D ' &.&.&.&.' G H G G H H H H H H G ;       . q G H M O                   ",
"                                q H H H H H H H H G G ^ %.&.&.&.&.) G H H H H H H G H H B @       % S H H B @                   ",
"                              $ V H H H H H H H H G Y +.&.&.&.&.&._ G G G H H H H G H H i .       y F H H G 1                   ",
"                  + o       . u F F H H H H H H G D } &.&.&.&.&.&.} G G G G H H H H H H 2       o v H H H F v O                 ",
"                & v $       @ B H F G G G G H H G R %.&.&.&.&.&.&.o.J G G G G G G H H S $       o n H H H H G 3                 ",
"              & B S $       * D H G G G G G G H G } &.&.&.&.&.&.&.%.W G F H G G G H H A #       o c F H H G H B $               ",
"            % B F S $       3 F G G G G G G G H U +.&.&.&.&.&.&.&.&.X.J H H G G G G H G *       . i F G G G G F c +             ",
"          @ m F H S &       0 F G D G G D G G G ! %.&.&.&.&.&.&.&.&.&.' D F G G G G G F u       . i F G G D D D F u o           ",
"        o f F G G G <       2 F D D G G D G G G ' &.&.&.&.&.&.&.&.&.&.%.^ G G G G G G H V - .   @ M F G D G D D F D 0           ",
"        0 F H H H F 0       & S D D D D F D G D X.&.&.&.&.&.&.&.&.&.&.&.+.R G G G G D D H V i e m D D G D D D D D F A &         ",
"      # B F H H H F g .     # V F D D D D D G K O.&.&.&.&.&.&.&.&.&.&.&.&.O.T G G G D G G H F F F D G D D D D D D D F v O       ",
"    . y F G G G H H A &     o v F G G D G D G U +.&.&.&.&.&.&.&.&.&.&.&.&.&.O.T G D D D G G G G G D D D D D D D D D D D 8       ",
"    # B H G G G G G F m %   o v F D D G F D G U #.&.&.&.&.&.&.&.&.&.&.&.&.&.&.O.T G G D G G G G G D D D D D D D D D D F M @     ",
"    0 F D D D D G G D F B u p S D D D D D G G Y #.&.&.&.&.&.&.;.=.&.&.&.&.&.&.&.O.T G D G H G D G D G D D D D D D D D D D 4     ",
"  o c F D D D D D D D D F F F D D D D D D D G U #.&.&.&.&.&.&.5.8.1.&.&.&.&.&.&.&.o.U G D F F D D D D D D D D D D D D D F c o   ",
"  @ B F D D D G D D D D D D D D D D D D D D G Y #.&.&.&.&.&.&.2.q.q.2.&.&.&.&.&.&.&. .K G D D D D J D D D D D D D D D D D A $   ",
"  & S D D D D D D D D D D D D D D D D D D D G T %.&.&.&.&.&.&.2.q.q.q.2.&.&.&.&.&.&.&.` D D D D G ! ' J D D D D D D D D D D :   ",
"  : F D D D D D D D D D D D D D D D D D D D G ! &.&.&.&.&.&.&.5.q.q.q.q.2.&.&.&.&.&.&.#.T G D D G ! &.' J D D D D D D D D F t   ",
"  8 F D D D D D D D D D D W Y D D D D D D D G ` &.&.&.&.&.&.&.5.q.q.q.q.q.1.&.&.&.&.&.&.' D D D G ^ &.%.( D D D D D D D D F i . ",
"  8 F D D D D D D D D D Y +.} D D D D D D D K o.&.&.&.&.&.&.;.9.q.q.q.q.q.9.;.&.&.&.&.&.O.K D D G ) &.&.O.U D D D D D D D F g . ",
"  : F D D D D D D D D D } &.%.^ D D D D D D ( %.&.&.&.&.&.&.1.q.q.q.q.q.q.q.5.&.&.&.&.&.%.W G D D  .&.&.&.) D D D D D D D F g . ",
"  * D D D D D D D D D Y #.&.&.#.( J D D K ) #.&.&.&.&.&.&.&.5.q.q.q.q.q.q.q.9.>.&.&.&.&.&.( G D Y +.&.&.&.X.J D D D D D D F d . ",
"  # Z D D D D D D D G ( &.&.&.&.%.o.' ' o.&.&.&.&.&.&.&.&.1.q.q.q.q.q.q.q.q.q.5.&.&.&.&.&._ G D ' &.&.&.&.+.U D D D D D D F t   ",
"  o c F D D D D D D D ' &.&.&.&.&.&.&.&.&.&.&.&.&.&.&.&.;.9.q.q.q.q.q.q.9.9.q.9.;.&.&.&.&._ D _ %.&.&.&.&.#.Y D D D D D D D :   ",
"    q F D D D D D D D  .&.&.&.&.&.&.&.&.&.&.&.&.&.&.&.;.8.q.q.q.q.q.q.q.q.9.q.q.1.&.&.&.&. . .%.&.&.&.&.&.%.T D D D D D D A $   ",
"    $ A D D D D D D D  .&.&.&.&.&.&.&.&.&.&.&.&.&.&.>.8.q.q.q.q.q.q.9.9.q.q.q.q.2.&.&.&.&.&.&.&.&.&.&.&.&.#.Y D D D D D F c o   ",
"    . d F D D D D D D ' &.&.&.&.&.&.&.&.&.&.&.&.&.1.9.q.q.q.q.q.q.9.9.q.q.q.q.q.5.&.&.&.&.&.&.&.&.&.&.&.&.+.K D D D D D D >     ",
"      % A D D D D D G ^ &.&.&.&.&.&.&.&.&.&.&.=.2.q.q.q.q.q.q.q.q.q.9.9.q.q.q.q.9.;.&.&.&.&.&.&.&.&.&.&.&.X.J D D D D F m +     ",
"      . e D D D D D D Y +.&.&.&.&.&.&.&.&.&.=.5.q.q.q.q.q.q.q.q.q.q.q.q.q.q.q.q.q.>.&.&.&.&.&.&.&.&.&.&.&._ D D D D D S ;       ",
"        O c F D D D D D } &.&.&.&.&.&.&.&.&.5.q.q.q.q.q.q.q.9.9.q.q.q.q.q.q.q.q.q.2.&.&.&.&.&.&.&.&.&.&.#.T D D D D F y .       ",
"          $ M F D D D D T #.&.&.&.&.&.&.&.>.q.q.q.q.q.q.q.q.q.q.9.q.q.q.q.9.q.q.q.9.1.;.1.5.;.&.&.&.&.&. .D D D D F g O         ",
"            % M F D D D D _ &.&.&.&.&.&.&.1.q.q.q.q.q.q.q.q.q.q.q.q.q.q.q.q.q.q.q.q.q.9.q.q.;.&.&.&.&.#.T D D D F c @           ",
"              % m F D D D K  .&.&.&.&.&.&.1.q.q.q.q.q.q.q.q.q.q.q.q.q.q.q.q.q.q.q.q.q.q.q.9.;.&.&.&.&.) D D D F c @             ",
"                # g D D D D U o.&.&.&.&.&.;.9.q.q.q.q.q.q.q.q.q.q.q.q.q.q.q.q.q.q.q.q.q.q.5.&.&.&.&.' J D D D i +               ",
"                  O e A F D D Y X.&.&.&.&.&.5.q.q.q.q.q.q.q.q.q.q.q.q.q.q.q.q.q.q.q.q.q.9.;.&.&.&.} K D F Z 0 o                 ",
"                    . & c D F D U  .&.&.&.&.;.9.q.q.q.q.q.q.q.q.q.q.q.q.q.q.q.q.q.q.q.q.1.&.&.%.` K F S f $                     ",
"                        O : b D F J ( +.&.&.&.1.9.q.q.q.q.q.q.q.q.q.q.q.q.q.q.q.q.q.q.2.&.&.O.! F S g * o                       ",
"                            O 1 g A D Y ' #.&.&.>.8.q.q.q.q.q.q.q.q.q.q.q.q.q.q.q.9.1.&.+._ U B i & o                           ",
"                                o % q c Z I _ o.#.-.4.8.q.0.0.0.0.8.8.0.0.0.q.q.5.-.X.~ N f : @ .                               ",
"                                      o # ; e h L E [ $.,.6.7.7.7.7.7.7.7.3.<.:.P j w & + .                                     ",
"                                              o + $ & , 6 s k z x x x l 7 5 = # O .                                             "
};
