/* XPM */
static char *ee4955f465534854c4e56cdddf2e16daoetUkuveYjM9iROr[] = {
/* columns rows colors chars-per-pixel */
"64 64 157 2 ",
"   c #F22F05",
".  c #FE2F00",
"X  c #F53106",
"o  c #FC3101",
"O  c #F73C04",
"+  c #FB3B03",
"@  c #F5340B",
"#  c #F9340A",
"$  c #F4390E",
"%  c #F9390F",
"&  c #ED3914",
"*  c #F53710",
"=  c #F43B14",
"-  c #F33E19",
";  c #FA3F18",
":  c #FA4303",
">  c #F74F05",
",  c #FA4B04",
"<  c #FA5405",
"1  c #FB5C05",
"2  c #F95D0C",
"3  c #EF411E",
"4  c #F44315",
"5  c #F3421D",
"6  c #F9461E",
"7  c #F35813",
"8  c #FB6405",
"9  c #FB6B06",
"0  c #F9620A",
"q  c #F96A08",
"w  c #F77205",
"e  c #FC7305",
"r  c #FD7C04",
"t  c #FC740A",
"y  c #FD7B08",
"u  c #F2741F",
"i  c #EE4420",
"p  c #EB4924",
"a  c #EC4D2C",
"s  c #F34522",
"d  c #F54925",
"f  c #F34D2B",
"g  c #EE502D",
"h  c #F2512E",
"j  c #EC5536",
"k  c #E5563C",
"l  c #EF5C3D",
"z  c #F15434",
"x  c #F25C34",
"c  c #F05739",
"v  c #F25A3B",
"b  c #F26B37",
"n  c #EB5C40",
"m  c #F25F41",
"M  c #EE6446",
"N  c #EE664A",
"B  c #F06245",
"V  c #F26549",
"C  c #F26C4F",
"Z  c #EC6D53",
"A  c #F16E52",
"S  c #E67158",
"D  c #EF7359",
"F  c #F07256",
"G  c #F1765B",
"H  c #F0785D",
"J  c #EB7D63",
"K  c #F17760",
"L  c #F17C62",
"P  c #F07F68",
"I  c #FF8501",
"U  c #FC8B02",
"Y  c #F78C0D",
"T  c #FB9403",
"R  c #FB9D04",
"E  c #F38F19",
"W  c #FBA405",
"Q  c #FCAC04",
"!  c #FBA109",
"~  c #FDB404",
"^  c #FFBE01",
"/  c #F28132",
"(  c #F6BC2F",
")  c #F5B63E",
"_  c #F7BA3D",
"`  c #FEC002",
"'  c #FBC527",
"]  c #FAC32B",
"[  c #F08659",
"{  c #EFB158",
"}  c #F2B354",
"|  c #DE8271",
" . c #ED826C",
".. c #F2826B",
"X. c #ED8770",
"o. c #EF8A72",
"O. c #EF8C78",
"+. c #F18B75",
"@. c #F28F7A",
"#. c #F3927D",
"$. c #EBAD69",
"%. c #EFB075",
"&. c #E29589",
"*. c #E99C8E",
"=. c #F29581",
"-. c #F39B86",
";. c #F29C89",
":. c #F4A18E",
">. c #F2B087",
",. c #E7A79C",
"<. c #EEAC9F",
"1. c #F3A493",
"2. c #F3AB9B",
"3. c #EEB09F",
"4. c #F5B09E",
"5. c #F4BB99",
"6. c #F4AFA1",
"7. c #E4B1A6",
"8. c #EEB3A2",
"9. c #F4B4A4",
"0. c #F6B6A9",
"q. c #F4BBAC",
"w. c #F8BAAB",
"e. c #ECBDB3",
"r. c #F6BEB2",
"t. c #F6C1B3",
"y. c #F7C7BB",
"u. c #F9C7BC",
"i. c #F6C8BD",
"p. c #F6CCC3",
"a. c #F8CDC3",
"s. c #F5D0C1",
"d. c #F9D0C6",
"f. c #F5D4CD",
"g. c #F9D4CB",
"h. c #F8D8CF",
"j. c #F3DBD6",
"k. c #FADBD3",
"l. c #F6DFD9",
"z. c #F6E1DB",
"x. c #FAE3DC",
"c. c #FBE6E1",
"v. c #FBEAE5",
"b. c #FDEDE6",
"n. c #FBEDE8",
"m. c #FCEDEA",
"M. c #FBF2ED",
"N. c #FCF1ED",
"B. c #FDF1ED",
"V. c #FEF3F0",
"C. c #FBF4F1",
"Z. c #FDF6F3",
"A. c #FDF7F5",
"S. c #FEF9F6",
"D. c #FEFBF9",
"F. c #FEFCF9",
"G. c #213122",
/* pixels */
"G.G.G.G.G.G.G.G.G.G.G.G.G.G.G.G.G.G.G.G.G.G.G.G.G.G.G.G.G.G.G.G.G.G.G.G.G.M.A.G.G.G.G.G.G.G.G.G.G.G.G.G.G.G.G.G.G.G.G.G.G.G.G.G.",
"G.G.G.G.G.G.G.G.G.G.G.G.G.G.G.G.G.G.G.G.G.G.G.G.G.G.G.G.G.G.G.G.G.G.G.c.2.,.C.G.G.G.G.G.G.G.G.G.G.G.G.G.G.G.G.G.G.G.G.G.G.G.G.G.",
"G.G.G.G.G.G.G.G.G.G.G.G.G.G.G.G.G.G.G.G.G.G.G.G.G.G.G.G.G.G.G.G.G.v.:.z M x.G.G.G.G.G.G.G.G.G.G.G.G.G.G.G.G.G.G.G.G.G.G.G.G.G.G.",
"G.G.G.G.G.G.G.G.G.G.G.G.G.G.G.G.G.G.G.G.G.G.G.G.G.G.G.G.G.G.G.M.2.z   5 a.G.G.G.G.G.G.G.G.G.G.G.G.G.G.G.G.G.G.G.G.G.G.G.G.G.G.G.",
"G.G.G.G.G.G.G.G.G.G.G.G.G.G.G.G.G.G.G.G.G.G.G.G.G.G.G.G.G.G.a.C # . X ;.G.G.G.G.G.G.G.G.G.G.G.G.G.G.G.G.G.G.G.G.G.G.G.G.G.G.G.G.",
"G.G.G.G.G.G.G.G.G.G.G.G.G.G.G.G.G.G.G.G.G.G.G.G.G.G.G.G.N.:.5 . . . c c.G.G.G.G.G.G.G.G.x.Z.G.G.G.G.G.G.G.G.G.G.G.G.G.G.G.G.G.G.",
"G.G.G.G.G.G.G.G.G.G.G.G.G.G.G.G.G.G.G.G.G.G.G.G.G.G.G.v...# . . o X ;.G.G.G.G.G.G.G.G.y.j 6.G.G.G.G.G.G.G.G.G.G.G.G.G.G.G.G.G.G.",
"G.G.G.G.G.G.G.G.G.G.G.G.G.G.G.G.G.G.G.G.G.G.G.G.G.G.c.F . . . o . - h.G.G.G.G.G.G.G.G...  c x.G.G.G.G.G.G.G.G.G.G.G.G.G.G.G.G.G.",
"G.G.G.G.G.G.G.G.G.G.G.G.G.G.G.G.G.G.G.G.G.G.G.G.G.M.H . . . . . . z b.G.G.G.G.G.G.G.G.1.X . ;.G.G.G.G.G.G.G.G.G.G.G.G.G.G.G.G.G.",
"G.G.G.G.G.G.G.G.G.G.G.G.G.G.G.G.G.G.G.G.G.G.G.G.F.=.X . . . . . . N V.G.G.G.G.G.G.G.G.x.z . K F.G.G.G.G.G.G.G.G.G.G.G.G.G.G.G.G.",
"G.G.G.G.G.G.G.G.G.G.G.G.G.G.G.G.G.n.D.G.G.G.G.G.a.s . . . . . . . m m.G.G.G.G.G.G.G.G.F. .3 q.G.G.G.G.G.G.G.G.G.G.G.G.G.G.G.G.G.",
"G.G.G.G.G.G.G.G.G.G.G.G.G.G.G.G.S. .;.S.G.G.G.D. .. o . . . . . . s x.G.G.G.G.G.G.G.G.D.e.a.G.G.G.G.G.G.G.G.G.G.G.G.G.G.G.G.G.G.",
"G.G.G.G.G.G.G.G.G.G.G.G.G.G.G.G.y.- * q.G.G.G.c.f . o . . . . . . @ 2.G.G.G.G.G.G.G.G.G.G.G.G.G.G.G.G.G.G.G.G.G.G.G.G.G.G.G.G.G.",
"G.G.G.G.G.G.G.G.G.G.G.G.G.G.G.k.v . . =.G.G.G.i.* . . . . . . . . . m v.G.G.G.G.G.G.G.G.G.G.G.G.G.G.G.G.G.G.G.G.G.G.G.G.G.G.G.G.",
"G.G.G.G.G.G.G.G.G.G.G.G.G.G.g.v . . * r.G.G.G.8.@ . . . . . . . . .   @.S.G.G.G.G.G.G.G.G.G.v.z.G.G.G.G.G.G.G.G.G.G.G.G.G.G.G.G.",
"G.G.G.G.G.G.G.G.G.G.G.G.G.p.h . . X +.A.G.G.G.8.X . . . . . . . . . . $ 1.F.G.G.G.G.G.G.G.G.l.| c.G.G.G.G.G.G.G.G.G.G.G.G.G.G.G.",
"G.G.G.G.G.G.G.G.G.G.G.G.x.c . . X ..N.G.G.G.G.q.@ . . o . . . . . o . . - 9.G.G.G.G.G.G.G.G.b.n +.D.G.G.G.G.G.G.G.G.G.G.G.G.G.G.",
"G.G.G.G.G.G.G.G.G.G.G.G.u.$ . . G n.G.G.G.G.G.g.= . . . . . . . . . . . . s y.G.G.G.G.G.G.G.Z.V * t.G.G.G.G.G.G.G.G.G.G.G.G.G.G.",
"G.G.G.G.G.G.G.G.G.G.G.G.n.Z . s k.G.G.G.G.G.G.x.d . . . . . . . . . . . . . l x.G.G.G.G.G.G.Z.V . M v.G.G.G.G.G.G.G.G.G.G.G.G.G.",
"G.G.G.G.G.G.G.G.G.G.G.G.G.c.P S V.G.G.G.G.G.G.V.N . . . . . . . . . . . . . . +.D.G.G.G.G.G.N.m . X :.G.G.G.G.G.G.G.G.G.G.G.G.G.",
"G.G.G.G.G.G.G.G.G.G.G.G.G.G.A.f.A.G.G.G.G.G.G.F. .. o . . . . . . . . . . . . s g.G.G.G.G.G.c.g . . f x.G.G.G.G.C.p.A.G.G.G.G.G.",
"G.G.G.G.G.G.G.G.G.G.G.G.C.G.G.G.G.G.G.G.G.G.G.G.1.. o . . . . . . . . . . . . . #.G.G.G.G.G.h.3 . .   ;.G.G.G.D.=.a h.G.G.G.G.G.",
"G.G.G.G.G.G.G.G.G.G.G.x.*.S.G.G.G.G.G.G.G.G.G.G.9.X . . . . . . . . . . . . . . l n.G.G.G.G.9.# . . . z c.G.G.x.s   H N.G.G.G.G.",
"G.G.G.G.G.G.G.G.G.G.G.-.a k.G.G.G.G.G.G.G.G.G.G.w.X . . . . . . . . . . . . . . = a.G.G.G.F.o.. . . . @ 2.G.G.v.z . X ..n.G.G.G.",
"G.G.G.G.G.G.G.G.G.G.x.h . ;.G.G.G.G.G.G.G.G.G.G.2.. o . . . . . o o . . . . . o . 1.G.G.G.v.z . . . . . A Z.G.G.9.* . X F c.G.G.",
"G.G.G.G.G.G.G.G.G.G.1.X . f k.G.G.G.G.G.G.G.G.Z.D . . . . . . . . . o . . o o . . J D.G.G.0.@ . . . o . i h.G.G.S.1.* . .  .S.G.",
"G.G.G.G.G.G.G.G.G.N.M . . . F b.G.G.G.G.G.G.G.9.* . o o . . . . o , + . . o . . . z c.G.v.V . . . . o . X 2.G.G.G.D.=.X . l N.G.",
"G.G.G.G.G.G.G.G.G.p.= . o .   L v.G.G.G.G.D.9.s . . o . . . . + 9 e + . o . . o . @ -.g.G X . . . . o . . X.F.G.G.G.v.j 5 9.G.G.",
"G.G.G.G.G.G.G.G.G.-.. . . o . o V a.S.G.x.@.* . . o . . . o , e I 9 o . . . . . . . # ; . . . . . o . . . Z Z.G.G.G.Z.*.i.G.G.G.",
"G.G.G.G.G.G.G.G.A.A . . . . . . . 5 H P h . . . . . . . . , r I I 9 o . . . . . . . . . . . . . o o . . . z v.G.G.G.D.D.G.G.G.G.",
"G.G.G.G.G.G.G.G.x.a . . . . . . . . . . . . . . . . . . : y I I I q o . o . . . . . . . . . . . + + . . . d c.G.G.G.G.G.G.G.G.G.",
"G.G.G.G.G.G.G.G.a.- . . . . . . . . . . o . . . . . . o 8 I I I I 9 o . . . . . . . . . . . . . O 2 o . . 5 x.G.G.G.G.G.G.G.G.G.",
"G.G.G.G.G.G.G.G.w.# . . . . . . . . . . . o . . . . . : y I I I I e + . o . . . . . . . . . . . O t , . . - h.G.G.G.G.G.S.F.G.G.",
"G.G.G.G.G.G.G.G.9.. . . . . . . . . . . . . . . . . . > I I I I I r : . . . . . . . . . . . o . : r 8 o . @ t.G.G.G.G.F.7.l.G.G.",
"G.G.G.G.G.G.G.G.2.. . . . . . . . . . . . . . . . . . < I I I I I I 1 . . . . . . . . o . . . . < I r : . X 2.G.G.G.G.x.k 0.G.G.",
"G.G.G.G.G.G.G.G.2.. . . . . . . . . . . . . . . . . . > I I I I I I e + . . . . . . . . o o . o e I I < . . +.G.G.G.G.1.  o.G.G.",
"G.G.G.G.G.G.G.G.9.  . . . . . . o o . . o . . . . . . : r I I I I I I < . . . . . . . . o . o 1 I I I 9 o . B N.G.G.x.z . N V.G.",
"G.G.G.G.G.G.G.G.w.# . . . o . . + + . o . . . . . . . o e I I I I I I y : . . . . . . . . o < I I I I e o . - i.G.F.#.  . f c.G.",
"G.G.G.G.z.j.G.G.d.- . . . . . . < 1 . o . . . . . . . o 8 I I I I I I I e : . . . . . . o 1 I I I I I e o . . C k.4.- . . - g.G.",
"G.G.G.D.&.a.G.G.x.a . o . . . o 8 y + . . . . . . . . . 1 I I I I I I I I y < + o o o , 9 I I I I I I e o . . o 6 % . . . @ q.G.",
"G.G.G.h.k g.G.G.S.A . . . . o o e I 9 + . . . . o . . o 9 I I I I I I I I I I e 9 8 e I I I I I I I I 9 o . . . . . . . . X 8.G.",
"G.G.G.;.& u.G.G.G.#.. . . . . + y I I e , o o . . o + 1 I I I I I I I I I I I I I I I I I I I I I I I < . . . . . . . . . X <.G.",
"G.G.A.A   2.G.G.G.0.@ . o . . + r I I I I e 8 1 1 9 y I I I I I I I I I I I I I I I I I I I I I I I r : . o . . . . . . . X <.G.",
"G.G.c.z   D Z.G.G.k.5 . o . . : r I I I I I I I I I I I I I I I I I I I I I I I I I I I I I I I I I 9 o . . . . . . . . . X 3.G.",
"G.G.z.p . * r.G.G.n.z . o . . + r I I I I I I I I I I I I I I I I I I I I I I I I I I I I I I I I I , . . . . . . . . . . @ 0.G.",
"G.G.z.p . . v x.G.A.Z . o . . + y I I I I I I I I I I I I I I I I U I I I I I I I I I I I I I I I 8 o . o . . . . . . . . = p.G.",
"G.G.x.a . . . C k.F.J . o . . o e I I I I I I I I I I I I I I I R ! I I I I I I I I I I I I I I e + . . . . . . . . . . . s x.G.",
"G.G.N.B . . . . h -.N . . . o o 8 I I I I I I I I I I I I I I R ^ R I I I I I I I I I I I I I r : . . . . . . . . . . o . B N.G.",
"G.G.G.... o . . . . o . . o o . < I I I I I I I I I I I I I T ^ ^ R I I I I I I I I I I I I I < o . . . . . . . . . . . . O.G.G.",
"G.G.G.q.@ . . . . . . o . . . . + y I I I I I I I I I I I I W ^ ^ R I I I I I I I I I I I I e o . . . . . . . o . . . . * t.G.G.",
"G.G.G.v.c . . o . . . o . . . . o 8 I I I I I I I I I I I U Q ^ ^ R I I I I I I I U T I I I < . . . . . . o , 1 o . o . l b.G.G.",
"G.G.G.G.1.X . o . + + . . . . . o 8 I I I R U I I I I I I I Q ^ ^ Q I I I I I I I R W I I r : . . . . . : 8 I 8 o . o X 1.G.G.G.",
"G.G.G.G.v.M . . . + 0 1 : + + : 8 I I I U ~ W I I I I I I I Q ^ ^ ^ T I I I I I U ~ Q I I r + . . o : 8 r I y : . . . c c.G.G.G.",
"G.G.G.G.G.i.5 . o . , r r y r I I I I I T ^ ^ W U I I I I T ^ ^ ^ ^ W I I I I U Q ` Q I I r : + , 8 y I I r > . . . $ 9.G.G.G.G.",
"G.G.G.G.G.G.2.* . . o 1 I I I I I I I I U ^ ^ ^ Q T U U R ~ ^ ^ ^ ^ ^ R U U R ~ ^ ^ R I I I r r I I I I r < o . . X +.S.G.G.G.G.",
"G.G.G.G.G.G.S.;.* . . o 8 I I I I I I I I Q ^ ^ ^ ^ ~ ~ ^ ^ ^ ^ ^ ^ ^ ^ ~ ~ ^ ^ ^ ^ U I I I I I I I I r < o . . . K n.G.G.G.G.G.",
"G.G.G.G.G.G.G.D.1.- . . o 8 I I I I I I I T ^ ^ ^ ^ ^ ^ ^ ^ ^ ^ ^ ^ ^ ^ ^ ^ ^ ^ ^ W I I I I I I I I y > o . . @ ..v.G.G.G.G.G.G.",
"G.G.G.G.G.G.G.G.G.w.h . . o 8 I I I I I I I W ^ ^ ^ ^ ^ ^ ^ ^ ^ ^ ^ ^ ^ ^ ^ ^ ^ ~ U I I I I I I I e : . . . h 2.Z.G.G.G.G.G.G.G.",
"G.G.G.G.G.G.G.G.G.G.k.L * . o < r I I I I I U Q ^ ^ ^ ^ ^ ^ ^ ^ ^ ^ ^ ^ ^ ^ ^ ^ T I I I I I I r 1 + . . f =.x.G.G.G.G.G.G.G.G.G.",
"G.G.G.G.G.G.G.G.G.G.G.A.w.V # . : 9 I U U I I U ~ ^ ^ ^ ^ ^ ^ ^ ^ ^ ^ ^ ^ ^ ^ R I I I U U I 9 : . # v :.x.G.G.G.G.G.G.G.G.G.G.G.",
"G.G.G.G.G.G.G.G.G.G.G.G.G.N.0.C = o , e T R R T W ^ ^ ^ ^ ^ ^ ^ ^ ^ ^ ^ ^ ^ ~ T T R W T e , $ f ..t.m.G.G.G.G.G.G.G.G.G.G.G.G.G.",
"G.G.G.G.G.G.G.G.G.G.G.G.G.G.G.Z.a.#.v 4 > e T ~ ^ ^ ^ ^ ^ ^ ^ ^ ^ ^ ^ ^ ^ ^ ^ ^ ~ T w 7 x ..w.c.G.G.G.G.G.G.G.G.G.G.G.G.G.G.G.G.",
"G.G.G.G.G.G.G.G.G.G.G.G.G.G.G.G.G.G.N.a.1.L b u Y W ~ ^ ^ ^ ^ ^ ^ ^ ^ ^ ^ ~ ! E / [ :.p.b.G.G.G.G.G.G.G.G.G.G.G.G.G.G.G.G.G.G.G.",
"G.G.G.G.G.G.G.G.G.G.G.G.G.G.G.G.G.G.G.G.G.D.v.f.q.>.$.} _ ] ' ' ' ] ( ) { %.5.s.v.D.G.G.G.G.G.G.G.G.G.G.G.G.G.G.G.G.G.G.G.G.G.G."
};
