/* XPM */
static char *d539294585524865b7475c9241557e57XwXuP4ntX6b2TpBd[] = {
/* columns rows colors chars-per-pixel */
"64 64 196 2 ",
"   c #213122",
".  c #213122",
"X  c #213122",
"o  c #BD6F01",
"O  c #BF7305",
"+  c #C07307",
"@  c #C1760C",
"#  c #C3790D",
"$  c #C57C13",
"%  c #DA8F04",
"&  c #D78D0C",
"*  c #DB9106",
"=  c #DC940B",
"-  c #CA821C",
";  c #CC8A1D",
":  c #DF9B12",
">  c #E39D0C",
",  c #E5A40F",
"<  c #E8A40C",
"1  c #EAA90E",
"2  c #E5A413",
"3  c #E7A914",
"4  c #EAAC13",
"5  c #E2A51C",
"6  c #E8A71B",
"7  c #E6A91A",
"8  c #E9AC1B",
"9  c #EDB315",
"0  c #EDB51A",
"q  c #EFB91B",
"w  c #F0B716",
"e  c #F1B917",
"r  c #F2BC1A",
"t  c #C98526",
"y  c #CE8B2C",
"u  c #D18926",
"i  c #D58C2D",
"p  c #D3912B",
"a  c #CD8C33",
"s  c #CB8F3B",
"d  c #D68F30",
"f  c #CC9138",
"g  c #D79133",
"h  c #D99635",
"j  c #D7963B",
"k  c #DC9D3A",
"l  c #D9A535",
"z  c #DDA33C",
"x  c #DDAB3B",
"c  c #E1A626",
"v  c #E5AB23",
"b  c #E9AD23",
"n  c #E3AB2C",
"m  c #E7B025",
"M  c #EBB324",
"N  c #EEBA23",
"B  c #E7B12B",
"V  c #EAB52C",
"C  c #EDBA2C",
"Z  c #F1BE22",
"A  c #F0BF2A",
"S  c #E4AF30",
"D  c #E6B333",
"F  c #E8B634",
"G  c #ECBA35",
"H  c #E7B639",
"J  c #EBBC3B",
"K  c #F3C124",
"L  c #F4C52B",
"P  c #F5C82E",
"I  c #EEC23C",
"U  c #F1C432",
"Y  c #F5CA33",
"T  c #F0C43B",
"R  c #F6CE3A",
"E  c #F7D03D",
"W  c #D59743",
"Q  c #D99A43",
"!  c #DB9E4D",
"~  c #DFA540",
"^  c #D7A157",
"/  c #DEA65C",
"(  c #E0A741",
")  c #E2AD45",
"_  c #E1B443",
"`  c #EABD41",
"'  c #E4B249",
"]  c #E6BC4C",
"[  c #E8BB54",
"{  c #D5A461",
"}  c #DDAD6A",
"|  c #D8B17A",
" . c #E0AF6D",
".. c #E4B56B",
"X. c #E3B67A",
"o. c #EDC444",
"O. c #E7C24E",
"+. c #F1C643",
"@. c #F3CC44",
"#. c #F2CC4B",
"$. c #F7D343",
"%. c #F8D546",
"&. c #F5D34D",
"*. c #F8D749",
"=. c #F9D94D",
"-. c #ECCA54",
";. c #EBC558",
":. c #F1CE51",
">. c #F0CF5D",
",. c #F3D354",
"<. c #F7D856",
"1. c #F9DD54",
"2. c #F2D459",
"3. c #F7DA5B",
"4. c #F8DD5C",
"5. c #FBE15C",
"6. c #F2D461",
"7. c #F6DC64",
"8. c #F8DF63",
"9. c #F7DF69",
"0. c #FAE465",
"q. c #FDE867",
"w. c #FAE56A",
"e. c #FDEA6C",
"r. c #FEEE72",
"t. c #FFF176",
"y. c #FFF279",
"u. c #213122",
"i. c #213122",
"p. c #213122",
"a. c #213122",
"s. c #E5BD85",
"d. c #E3BD8A",
"f. c #DFC196",
"g. c #E5C08E",
"h. c #EDCD8C",
"j. c #F2D886",
"k. c #E7C79B",
"l. c #EED292",
"z. c #F9E687",
"x. c #FFF383",
"c. c #FDF28B",
"v. c #FAEA91",
"b. c #FEF395",
"n. c #FEF49B",
"m. c #E4C9A3",
"M. c #E9CBA4",
"N. c #E9CDA9",
"B. c #ECD1A7",
"V. c #E3CFB2",
"C. c #EBD4B6",
"Z. c #E9D4B8",
"A. c #FBF3A5",
"S. c #FCF4AB",
"D. c #FBF4B5",
"F. c #F8F3B8",
"G. c #213122",
"H. c #213122",
"J. c #213122",
"K. c #213122",
"L. c #213122",
"P. c #213122",
"I. c #213122",
"U. c #213122",
"Y. c #213122",
"T. c #213122",
"R. c #213122",
"E. c #213122",
"W. c #213122",
"Q. c #213122",
"!. c #213122",
"~. c #213122",
"^. c #213122",
"/. c #213122",
"(. c #213122",
"). c #213122",
"_. c #213122",
"`. c #213122",
"'. c #213122",
"]. c #213122",
"[. c #213122",
"{. c #213122",
"}. c #213122",
"|. c #213122",
" X c #213122",
".X c #213122",
"XX c #213122",
"oX c #213122",
"OX c #213122",
"+X c #213122",
"@X c #213122",
"#X c #213122",
"$X c #213122",
"%X c #213122",
"&X c #213122",
"*X c #213122",
/* pixels */
"*X.X{.*X.X{.*X#X~.#X#X~.#X*X{..X*X{..X*X{.{.*X.X{.*X.X{.*X#X{.%X#X].#X%X[.#X*X{..X*X{..X*X{.{.*X.X{.*X.X{.*X#X~.#X#X~.#X*X{..X*X",
".X#X#X.X.X#X.X.X#X.X.X#X.X.X#X.X.X#X#X.X#X#X.X#X#X.X+XoX`.).).Q.Q.).).`.oX.X.X#X+X.X#X#X.X#X#X.X#X#X.X.X#X.X.X#X.X.X#X.X.X#X.X.X",
"{.#X*X{..X*X{..X*X.X.X*X.X{.*X#X{.*X#X{.#X%X{.oX_.U.S.n.c.x.x.y.y.x.x.c.n.S.F.!.'.{.%X#X{.#X#X{.#X*X{..X*X{..X*X.X.X*X.X{.*X.X{.",
"*X.X{.*X.X{.#X#X{.#X#X{.#X#X{..X*X{..X*X{.Q.D.b.y.t.t.t.t.t.t.t.t.t.t.t.t.t.t.y.b.D.E..X*X.X{.*X.X{.*X.X{.#X#X{.#X#X{.#X#X{..X*X",
".X.X.X#X.X#X.X.X#X.X.X#X.X.X#X.X.X@XoXW.n.y.t.t.t.r.w.4.&.+.J J G J +.#.3.w.r.t.t.t.y.n.Y.'.+X.X.X.X.X.X#X.X.X#X#X+X#X.X.X#X.X.X",
"{.#X*X{..X*X{..X*X.X.X*X.X{.*X+X{.!.n.y.t.t.r.4.+.b 2 > < < < 4 4 < < < > 2 b I 3.r.t.t.y.b.Y.`.#X*X{..X*X{..X*X.X.X*X.X{.*X.X{.",
"*X.X{.#X#X{.#X#X{.#X#X{.#X#X{.(.S.y.t.t.e.#.b < < 4 9 r r r r Y E r r r r 9 4 < > 6 +.w.t.t.y.A.Q..X%X.X{.#X#X{.#X#X{.#X#X{..X*X",
"#X.X.X#X.X.X#X.X.X#X#X.X+X#XE.c.t.t.e.#.6 < 4 e r r r r r N $.5.q.$.C r r r r r r 9 < 3 +.e.t.t.c.U.oX+X.X#X.X.X#X#X.X.X#X.XoX#X",
"~.#X*X{..X*X{..X*X{..X*X.XF.x.t.t.3.b < 9 r r r r r r r r 4 D r.t.o.3 r r r r r r r r 9 < 6 ,.r.t.y.D.oX*X{..X*X{..X*X.X{.*X.X{.",
"#X.X.X#X.X{.#X#X{.#X#X`.D.y.t.r.T 2 4 r r r r r r r r r r r L 2.2.T r r r r r r r r r r r 9 < G e.t.t.S.`.#X#X{.#X#X{.#X#X{.#X*X",
"#X.X.X#X.X.X#X#X.X#XoXD.y.t.w.V < 9 Y P e r r r r r r r r r M 2 2 b r r r r r r r r r r L R e < b 0.t.t.A.oX#X.X#X#X.X#X#X.X.X#X",
"~.#X*X{..X*X{..X*X.XF.y.t.0.b 1 Z Y 4.1.Y Z r r r r r r r r 9 r r 9 r r r r r r r r r Y =.5.R Z 4 8 4.t.t.A..X*X{..X*X.X{.*X.X~.",
"#X.X.X#X.X.X#X#X.XU.y.t.0.b 4 r 7 o.t.r.o.3 r r r r r r r r r r r r r r r r r r r r 4 G r.t.:.7 r 9 6 4.t.t.D..X#X#X.X#X#X.X.X#X",
"#X.X.X#X.X{.#X#XE.x.t.w.m 4 r r 9 C 8.8.C w r r r r r r r r r R E K r r r r r r r r r M 8.8.I 9 r r 9 6 0.t.y.U.#X#X{.#X#X{..X*X",
"~.#X*X{..X*X{.`.n.t.r.G 4 r r r r C 5 5 C r r r r r r r r P 5.r.t.0.Y r r r r r r r r C v 5 V r r r r 4 m e.t.c.Q..X*X.X{.*X.X~.",
"#X.X.X#X.X.X.XD.t.t.@.4 r r r r r 4 9 9 4 r r r r r r L =.r.r.1.*.e.r.1.P r r r r r r 4 9 9 4 r r r r r 4 J t.t.A..X.X.X#X.X.X#X",
"*X.X{.*X.X{._.x.t.4.8 r r r r r r r r r r r r r r K %.e.t.5.Y r r L 1.r.e.=.L r r r r r r r r r r r r r r 4 ,.t.y.W.{.#X#X{..X*X",
"{.#X*X{..X*XS.t.r.C 9 r r r r r r r r r r r r r R q.t.0.R r P 1.5.Y r Y 5.t.e.$.K r r r r r r r r r r r r w M e.t.n.OX.X{.*X.X{.",
".X.X#X.X+X!.x.t.,.4 r r r r r r r r r r r r Y 5.t.e.$.K K =.e.t.t.r.1.P r R q.t.0.R r r r r r r r r r r r r 4 @.t.y.Y.+X.X#X.X.X",
"*X.X{.*X.XS.t.r.C w r r r r r r r r r r L 1.r.e.=.K K $.e.t.t.t.t.t.t.e.*.K K %.e.t.5.Y r r r r r r r r r r r M e.t.n.oX#X{..X*X",
"{.#X*X{.(.c.t.3.9 r r r r r r r r r K *.e.r.1.P r Y 0.r.t.r.r.r.r.r.r.t.r.0.E r L =.r.r.1.L r r r r r r r r r 9 #.t.x.Q.{.*X.X{.",
".X#X#X.XU.y.t.T w r L K r r r r Z $.q.t.q.E K K K R E R R R R R R R R R R E R L K K R 0.t.e.%.K r r r r K P r e C r.t.F..X#X#X.X",
"*X.X{.*XS.t.w.M r K =.$.K r r r 1.t.t.t.e.q.q.q.q.q.q.q.q.q.q.q.q.q.q.q.q.q.q.q.q.q.q.e.t.t.t.5.K r r K R 1.K Z 0 0.t.n.OX{..X*X",
"{.#X#X`.c.t.<.9 b ,.r.r.#.8 r Z q.t.t.t.t.t.t.t.t.t.t.t.t.t.t.t.t.t.t.t.t.t.t.t.t.t.t.t.t.t.t.e.K r 8 o.e.t.3.m 9 #.t.x.).%X.X{.",
"{.#X%XE.y.t.@.e 9 V r.e.m 9 r Z 0.t.t.t.t.t.t.t.t.t.t.t.t.t.t.t.t.t.t.t.t.t.t.t.t.t.t.t.t.t.t.e.K r 9 8 0.r.I 4 e U t.y.U.%X.X{.",
"*X.X{.Y.t.r.U r r T D F U r r r v n n S S S n n n n n S S S n n n n n S S S n n n n n S S S n v 0 r r L G n T r r Z e.t.D.{..X*X",
".X#X#XD.t.e.Z r r 3 4 4 3 r r r > % B 2.2.2.o.= * * J 2.2.2.G * * = o.2.2.2.n % % : :.2.2.2.5 = 9 r r 4 3 4 2 r r r 0.t.A.#X.X.X",
"{.#X#XA.t.0.Z r r r r r r r r r r r T w.w.w.&.r r r @.w.w.w.@.r r r ,.w.w.0.T r r Z 3.w.w.0.L r r r r r r r r r r r 4.t.n.OX.X{.",
"*X.X`.n.t.0.r r r r r r r r r r r r 4 n ` H 7 r r r 3 D ` D 4 r r r 7 G ` n 9 r r 9 5 J ` v 9 r r r r r r r r r r r <.t.c.`..X*X",
".X+XoXn.t.5.r r r r r r r r r r r r r 4.t.e.L r r r Z q.t.0.r r r r L r.t.1.r r r r R t.t.$.r r r r r r r r r r r r 1.t.c.'.+X.X",
"{.#XOXb.t.5.r r r r r r r r r r r r r 5.y.e.L r r r K e.y.q.K r r r P r.y.5.r r r r E t.t.*.r r r r r r r r r r r r 1.t.c.'.+X`.",
"*X.X`.b.t.5.r r r r r r r r r r r r r 5.y.e.L r r r K e.y.q.K r r r P r.y.5.r r r r E t.t.*.r r r r r r r r r r r r 1.t.c.(..X*X",
".X.X.Xb.t.0.r r r r r r r r r r r r r 5.y.e.L r r r K e.y.q.K r r r P r.y.5.r r r r E t.t.*.r r r r r r r r r r r r 5.t.c.`.+X.X",
"{.#XOXv.t.e.K r r r r r r r r r r r r 5.y.e.L r r r K e.y.q.K r r r P r.y.5.r r r r E t.t.*.r r r r r r r r r r r r 5.t.z.'.+X~.",
"*X.X/.v.t.e.L r r r r r r r r r r r r 5.y.e.L r r r K e.y.q.K r r r P r.y.5.r r r r E t.t.*.r r r r r r r r r r r K q.t.z.^.#X*X",
"#X.X{.j.t.r.Y r r r Y Z r r r r r r r 5.y.e.L r r r K e.y.q.K r r r P r.y.5.r r r r E t.t.*.r r r r r r r Y r r r L e.t.j./.@X#X",
"~.#X*Xl.r.t.$.r K L 5.R K r r r r r r 5.y.r.L r r r K e.y.q.K r r r P t.y.5.r r r r E y.y.*.r r r r r K Y 5.P K r R t.r.j.#X.X~.",
"#X.X.XB.w.y.5.0 m 4.t.e.J 8 r r r r r T :.#.Z r r r r @.:.+.r r r r Z #.:.T r r r r A #.:.U r r r r 9 G 0.t.0.F 9 =.t.e.h.{..X#X",
"#X.X.XC.6.y.e.K 4 o.r.8.7 e r r r r Y ,.:.,.$.r r r R ,.:.,.Y r r r $.,.:.,.P r r Z &.:.:.&.K r r r r 3 ,.r.,.4 r 0.y.8.k..X.X#X",
"~.#X*XK.;.t.t.R r I c G L r r r r r @.e.e.e.4.r r r &.e.e.e.&.r r r 4.e.e.e.R r r K 0.e.e.w.U r r r r Z J c I r Y r.t.>.Z.*X.X~.",
"#X.X.X`...w.y.5.q 2 9 3 4 r r r r K m c c c v K L K v c c c v K L Z v c c c m L L N c c c c N r r r r 9 2 9 2 0 =.t.r.[ R..X.X#X",
"*X.X{.#Xs.-.y.r.P r r r r r r r 1.e.w.w.w.w.w.e.e.e.w.w.w.w.w.e.e.e.w.w.w.w.e.e.e.e.w.w.w.w.e.1.K r r r r r r K e.y.2....X{..X*X",
"{.#X*X{.C.l r.y.1.r r r r r r =.t.y.y.y.y.y.y.y.y.y.y.y.y.y.y.y.y.y.y.y.y.y.y.y.y.y.y.y.y.y.y.y.1.K r r r r r %.t.t.l k..X*X#X{.",
".X.X.X@X^.f -.y.r.Y r r r r T 8.0.0.0.0.0.0.0.0.0.0.0.0.0.0.0.0.0.0.0.0.0.0.0.0.0.0.0.0.0.0.0.0.0.R r r r r L e.y.7.y P.@X.X.X.X",
"*X.X{.*X@X| z r.t.5.r r r r 2 & & & & & & & & & & & & & & & & & & & & & & & & & & & & & & & & & & : r r r r 1.t.t._ { .X#X{.#X*X",
"{.#X*X{.#XT.Q >.t.t.$.r r r 9 , , , , , , , , , , , , , , , , , , , , , , , , , , , , , , , , , , 4 r r r R r.t.6.k L.+X{.*X.X{.",
".X#X#X.X.X#Xg.k w.t.e.Y r r r r r r K P r r r r r r r r r r r r r r r r r r r r r r r r P K r r r r r r L e.t.r.z X..X.X.X#X.X.X",
"*X.X{.*X.X{.R.! x r.t.q.L r r r r K Y 1.K K r r r r r r r r r r r r r r r r r r r r Z K 1.$.K r r r r K 5.t.r._ Q I.{.#X#X{..X*X",
"{.#X#X{..X*X.XM.- _ t.t.5.K r r 8 o.e.t.4.B 9 r r r r r r r r r r r r r r r r r r r b ,.r.e.#.8 r r K 1.t.t.O.$ d..X*X.X.X*X.X{.",
"{.#X#X.X.X#X.X`.^ $ >.t.t.5.K r 9 7 8.r.o.4 r r r r r r r r r r r r r r r r r r r r 4 G r.w.b 9 r K 1.t.t.7.; s ^..X#X.X.X#X.X{.",
"*X.X{.*X+X{.*X#XK.a h 6.t.t.0.P r L J n I r r r r r r r r r r K L r r r r r r r r r r T n H L r K 5.t.t.8.k y V.*X#X{.#X*X{..X*X",
"{.#X#X.X.X#X.X.X*XC.j h 6.t.t.e.R 8 2 9 2 r r r r r r r r r r E *.r r r r r r r r r r 3 4 3 4 Y 0.t.t.7.k g M.#X.X.X#X.X.X#X.X{.",
"{.#X#X{..X*X.X.X*X.XN.j p ] r.t.r.=.K r r r r r r r r r r 0 &.e.r.<.M r r r r r r r r r r K $.e.t.t.-.p g k..X*X.X.X*X.X.X*X.X{.",
"*X.X{.*X.X{.*X#X{.#X#Xm.i O _ r.t.t.q.E K r r r r r r r r 4 c e.r.D < r r r r r r r r r R 0.t.t.r.O.# - g.oX#X{.#X#X{.#X#X{..X*X",
".X#X#X.X.X#X.X.X#X.X.X#Xm.$ - ) 7.t.y.t.0.$.K r r r r r r r U J D T r r r r r r r K R 5.r.y.t.9.' u @ d..X.X+X#X.X.X#X.X.X#X+X.X",
"{.#X*X.X.X*X.X.X*X.X.X*X.Xm.W i h [ w.t.y.t.e.1.R K r r r r 3 > > 2 r r r r K Y =.q.t.y.t.w.;.k i j f..X*X{..X*X.X.X*X.X{.*X.X{.",
"*X.X{.G.i.i.H.#X{.#X#X{.#X*XK. .g i ; _ w.t.y.y.t.e.5.1.$.R U Y Y U R $.=.5.e.r.t.y.t.w.O.; u d / K.*X.X{.#X#X{.#X#X{.#X#X{..X*X",
".X#XG.. u.X . H.#X.X.X.X#X#X#X`.k.! + # k ] 6.r.t.y.y.y.t.t.t.r.r.t.t.t.y.y.y.t.r.7.[ k - o j g.^.#X.X.X.X.X.X.X.X.X#X.X.X.X+X.X",
"{..Xi.X p.p.. a.*X.X.X*X.X{.*X@X{.R.} t i i g z x O.8.w.r.r.t.t.t.t.t.r.e.9.-.x z h i i y ^ I.{.#X*X{..X*X{..X*X.X.X*X.X{.*XoX{.",
"*X.Xi.X i.i.. a.{.#X#X{.#X#X{..X#X.X.XT.d.! g i @ @ g k ~ ) ' x l ' ) ( k h - o u g Q X.I.`..X*X.X{.#X.X{.*X#X{.#X#X{.#X#X{.#X*X",
"#X#XG.X X   X J..X#X#X.X#X#X.X.X#X.X.X#X.XR.N.X.a $ i i i i i # O u i i i i - t } M.T..X#X.X.X#X.X.X#X.X.X#X.X.X#X#X.X.X#X.XoX#X",
"~.#X*XG.p.a.H..X*X{..X*X.X{.*X.X{.*X#X{.*X*X{.#X^.Z.M.s.} / ^ a t ! / } s.k.C.R..X{.*X#X{.#X*X{.#X*X{..X*X{..X*X{..X*X.X{.*X.X~.",
"#X.X.X*X#X.X#X#X{.#X#X{.#X#X{..X#X.X.X#X.X.X#X.X.X*X@X.XoX`.^.^.R.^.`..X{.#X*X.X.X#X.X.X%X.X.X#X.X.X#X.X{.#X#X{.#X#X{.#X#X{..X#X",
"*X.X{.#X.X{.#X#X{.#X#X{.#X#X{..X#X{..X#X.X.X*X.X.X#X.X{.#X@X{.#X#X{.#X#X{.#X#X{..X#X.X.X#X.X.X#X.X.X*X.X{.#X#X.X#X#X{.#X#X{..X*X"
};
