/* XPM */
static char *_215ee9e10ff4b0ce9e369f86657b309ftATLN4vhYOtQWCR[] = {
/* columns rows colors chars-per-pixel */
"64 64 74 1 ",
"  c #6E2F0F",
". c #6F300F",
"X c #6F2F10",
"o c #6F3110",
"O c #713110",
"+ c #7B3D14",
"@ c #7E4015",
"# c #853612",
"$ c #863812",
"% c #883A13",
"& c #913F14",
"* c #804115",
"= c #8C4316",
"- c #854818",
"; c #8F4A18",
": c #924617",
"> c #934817",
", c #934718",
"< c #914C19",
"1 c #994F1A",
"2 c #8E511B",
"3 c #213122",
"4 c #9B511B",
"5 c #213122",
"6 c #213122",
"7 c #A3551B",
"8 c #A9521A",
"9 c #A1581D",
"0 c #B45B1C",
"q c #B95D1D",
"w c #B5601D",
"e c #BB611E",
"r c #213122",
"t c #AA6320",
"y c #BB6D23",
"u c #BA7023",
"i c #BE7B27",
"p c #CF6E21",
"a c #D16F21",
"s c #C17726",
"d c #CF7021",
"f c #C37827",
"g c #C27A28",
"h c #D27322",
"j c #D87723",
"k c #D57F27",
"l c #BD8029",
"z c #C68329",
"x c #D78127",
"c c #D58128",
"v c #D88228",
"b c #DA8B2B",
"n c #DB8C2B",
"m c #DC8C2B",
"M c #DC8F2C",
"N c #DE922D",
"B c #DF962E",
"V c #DA9F33",
"C c #DD9F33",
"Z c #E0962F",
"A c #E1982F",
"S c #E29A30",
"D c #E09F32",
"F c #E49F32",
"G c #DDA033",
"H c #E3A333",
"J c #E6A333",
"K c #E3A433",
"L c #E6A433",
"P c #E4A434",
"I c #E8A333",
"U c #E8A433",
"Y c #E8A534",
"T c #EAA835",
/* pixels */
"6655555555555565555555555555556655555555555555555555555555555555",
"6665555556555665555556655556555555555556555556655555555555555556",
"6555555556665555555555655565565556655555556555565565555555555555",
"5555555555555555555555555555555555555555565555555555555555555555",
"5555555555555555555555655555555555556556555555555555555555555555",
"5555555555555555555555555555555555556556555555555555555555555555",
"5555555555555555555556555555555555665555555555555555555555555555",
"5555555555555555555555555555555555555555555555555555555555555555",
"5555555555555555555555555555555555555556555555555555555555555555",
"5555555555555555555555555555555555555555555555555555555555555555",
"6555555555555555555555555555555555555555555555555555555555555555",
"6555555555555555555553====================;555555555555555555555",
"6565555555555555555553$###################=555555555555555555555",
"6655555555555555555553%###################=555555555555555555555",
"6655555555555555555553$###################=556555555555555555555",
"5555555555555555333333111111111111111111411222223555555555555565",
"5555555555555553=#$$#,VPPHHHKKKHHHHHHHKKKPlOOOo +555555655555555",
"5555555565555553%####>GUIJJJJJJIJJJJJJJJJYiO.O. +555555655555565",
"5555555565555553%####,GLJJJJJJJJJJJJJJJJJYiOOO. +555555555555556",
"6555555555555555%####:CJJJJJJJJJJJLJLJJJJYio    +565555555556655",
"65555555553,;;;<49999tDJJJJZZZBZZZZZZZZAASz33333;;;;;35555555555",
"6555555555<#####gLJJJJJJJJFnnnnnnnnnbnnmnnBJLLJYi####;5555555555",
"6655555555<#####fYJJJJJJJJFnnnnnnnnnnnnnmmBJUIJTi#$##;5555555566",
"66556555553$####fYJJJJJJJJFnbnnnnnnnnnnnmmBJJJJTi#$##;5555555566",
"65555556553$####sYJJJJJJJLFnnnnnnnnnnnnnmmBJJJJTi#$##;6555555566",
"65665655553$####sYJJJFNNNNNnnnbbbbbbbbbnmmBJJJJYi#$##;5655555566",
"66665556553$####fYJJPDnnnnbnnnnbbbbbbbbnmmBJJJJYi#$##;5555555556",
"6555555555<$####sPJJLDnnnnnnnnbbbbbbbbbnmnNIYJJYi####;5555555555",
"55555555553$####sPJJPFnnnnnnnnbbbbbbbbbnnnNJJJJYi#$##;5555555565",
"55556555653$####sYJJLFnnnnnnnnbbbbbbbbbnnnNJJJJTi#$##;5555555665",
"55555555553$####sPJJJDnnnnnnbnbbbbbnbbbnnbNJJJJYi####;5555555666",
"66555555553$####sPJJJFnnnnnnnnnbbbbbbbbbnnNJJJJYi####;5555556666",
"66555655553$####sPJJJFnnnnnnbbbbbbbbbbnnnbNJJJJYi####;5555556665",
"66555656653$####sPPLPFnnnnnnbbbbbbbbbbbbbbNJJJLTi#$##;5555565666",
"55555555653$####yNNNNMbnnnnnbbbbnbbnbnNBBBNNNNNZu####;5555555666",
"55556555553$####0pppphbnnnnnbnbbbbbnbMJLJLZhhhhhq####;5655655555",
"55555665553$####0pppphbnmnnnnnbbbnnnnMJJJLZhhhhhq####;5566566555",
"55555566553$####0dppphbnmnnnnnbnbnnnnMJJJJZhhhhhq####;5555555555",
"55555555553$####0appphmnmmmmnmMMMmmMMNJJJLZhhhhjq####;5565555665",
"55555555553%%%%%8eqqqekxvvxxxxvvvvvvvvMNNNcwqeqe7#$$#;5555555555",
"5555555555533333=$$$#&ppappppppppppppppppa0OOOOO+333335555555555",
"5555555565555555=####&ppppppppppapppppappa0OOOO +555555555555555",
"6555565565555555=#$##&ppppppappapppppppppa0OOOO +555555555555555",
"6555555555555555=####&paaaaahhhhhaaaahhhha0O X  +555555555555555",
"6655555555555555,====,0qqqqqqqqqqqqqqqqqqq8*@@++-555555555555555",
"6555555555555555566563%%%%%%%%%%%%%%%%%$$#=555555555555555555555",
"5555555555555555555563%###################=556555555555555555555",
"5555555565555565555563%###################=555555555555555555555",
"5555555665555555556553%###################=555555555555555555565",
"5555555565555555555555<<<<<<<<<<<<<<<<<<<;3555555555565555555555",
"5555565555555555555555666666666666656555555555555555555555555556",
"5555565555556555555555555556655555555565555555555555555555555555",
"6555555555555555555555555556665555555565556555555555555555555555",
"5555555565555555655556555555555655555555566555555555555555555555",
"6555555555555555555555555555555556555555555555655555555555555555",
"6555555555555555555555555555555655655555555555555555555555555555",
"6556555555555555555555555555555555556655555555555555555555555555",
"5555555655555555655556555555555555555555555555555555555555555555",
"5555556655555555565555555555555555555555565555555555555555555555",
"5555555665555655555565555555555555555555555555555555555555555555",
"5555555566555555555565555555555655565555555555555555555555555555",
"5555555555555556565555555655555655555655555555555555555555555555",
"5555555555555555555556555555555555555655555555556555555555555555",
"3r333rrr333r3333rr3rrrrrrrrrrrrrrrrrrrr33r33rr33rr3r33rrrrrr3rrr"
};
