/* XPM */
static char *_719c3e3ab2546caffe4985c698c957eptlBIIEuWygIt6cS[] = {
/* columns rows colors chars-per-pixel */
"64 64 47 1 ",
"  c #555754",
". c #575855",
"X c #595A57",
"o c #5A5C59",
"O c #5F605D",
"+ c #60625F",
"@ c #646562",
"# c #676865",
"$ c #686966",
"% c #6C6D6A",
"& c #6F716E",
"* c #71726F",
"= c #747572",
"- c #767976",
"; c #787A77",
": c #797B78",
"> c #7B7D79",
", c #7B7E7B",
"< c #7C7E7B",
"1 c #7C7F7C",
"2 c #7D807C",
"3 c #7D807D",
"4 c #7F827F",
"5 c #80827F",
"6 c #7F8380",
"7 c #818380",
"8 c #828380",
"9 c #858684",
"0 c #848784",
"q c #868985",
"w c #888986",
"e c #8A8B89",
"r c #8B8C8A",
"t c #8C8E8B",
"y c #8C8E8C",
"u c #8F908E",
"i c #90918F",
"p c #909290",
"a c #919290",
"s c #939492",
"d c #949593",
"f c #949694",
"g c #979996",
"h c #989A97",
"j c #999B98",
"k c #9A9C99",
"l c #9B9D9B",
/* pixels */
"o ..$--=2yreeyuuuiiiiuuuiyrrr=   @>>>8ssddssssssssi88859qqwtddff",
"@ooo&<>;9aiuuaddfffffffffsaaa-Xoo$522qhhjjhhhhhgghfrwqqrtyyajjjj",
"@ooo&>>-qsaaisfffffffffffdaia-XoX$882qjjkkjjjjjhhhfrewqryyyakkkk",
"@ooo&22>8wwqqwwwwqqq9999qerrr=XoX@>>>1qqqqweeww9qq9221122228qqq9",
"+ooo&222;================299q=XoX@=--=%%%%-----------------=%%%$",
"+ooo&222;--=-----=------=299q=Xoo@---=%%%&>>>::;::::;;;;;;;-&%%%",
"Oooo&222;======---------=2qqq=ooo@---=%%%&>>>;;;;::;:;;;;;;-%%%%",
"Oooo$-==->>>;=----------=>222&ooo@***&%%%&====-:;;;;;;;;;;;-=*=*",
"OoooO@@+-qqq5=-----------====#oooO##@$%%%%%%%%=:;;;;;;;;;;;;;;:;",
"Oooo+@@+-qqq5------------====$oooO###$%%&%%%%%=:;;;;;;;;;;;;;;:-",
"OoooO@@+-qqq5-------------===$oooO###$%%%%%%%%-;;;;;;;;;;;;--;;-",
"OoooO@@+%;-;=**************&*#oooO##@#%%%%%%%%=-==--------------",
"OoooooooooooooooooooooooooooooXooooooooooOOOooOOOOOOOOOOOOO+@@@O",
"OoooooooXXXXXoooXXXXoXXXXXXXXXXXXXXXXXXXooXXXXXXXoXXXXXXXXXXXXoX",
"OoooooXXXXXXXoooooooXXXXXXXXXXXXXXXXXXXXXXXXXXXXooXXXXXXXXXXXXoX",
"$@@@@@@@@@@@oXoooOooO#$#$$$$$$$$$$$$$$$#$$$$$$#Xooo$$$$$$$$$$$%$",
"uuuuuuiiiiuu>Xoo+=*&=afffghhhjkkkkkkkjjjjjhhggqooo@fkjjjjjjjkkkj",
"auiuaaassssf1Xoo+==*-sffgggghjkjjjjkjkkjjjhhggqooo@fkjjjjjjjjjjg",
"aiaaaasssssf2Xoo+==*-dggghhhjkkkkkkkkkkkkkjjjhwooo@fkkkkkkkkkkjg",
"uyyyuuuuteee;ooo+**&=uaaaaiiiaaaaaaassssssssss9ooo+taiiiiuuuiiuu",
"82222222;===$oooo##@$>1>>>>>>>>>>>>>><22228qqq>oooo*=******=2622",
"82222222;===$oooo##@%>1>>>>>>>><><<<>>22228qqq<oooo*===****-8882",
"82222222;===$oooo##@%>21<>>>>>>>>111>122229qqq1oooo*=====**-8882",
"82222222>---%oooo###$---->11>222222221>>>>><><=oooo&*&&*===-111>",
"822222222226=oooo########-2229trte222<***&@@@@+oooo@##@%=======*",
"822222222228=Xooo########-2229trre225<***&@@@@+oooo###@%========",
"822222222588=Xooo####$$##-2229yrte2581****@@@@+oooo####%=======*",
"%$$%$$%%%%%$@Xooo@@@@+O+O@####$%%$$$$#@@@@Ooooooooo++OO@@@@@@@@@",
"o.XXXXXXXXXXXoooooXooXXXXXXXX.X.XXXXXoooXXoXXXXooXXXXXXXXXXXXXX.",
"oXoooooooooooXooooXXoXooXoXoXXoXooooooooooooooXXXXXXXXXXoooooooX",
"oXXXXXooXXXXXXXXXXXXXXXXXXXXXXXoXooooooooXXXXXXXXXXXXXXXXoooXooX",
"oXoX@%%%=>>:>>>>>522555555558%XoX@====&&&%-22255558858888888--:-",
"oooX$--=5eewewwqrauuuuiiaaaas;XoX#2221-;;-8uuuuuaasaassssdfaqqqq",
"oooX$-==2wqqqqqqeuuuuuuuuuiua-XoX#222<----8yyyyyiaiaaaaasssi99q8",
"oXoX$==*<9888998qrwreeereyiaa-XoX@><<>==-=5yrrrtyuuuuuuuiaau99q8",
"oXoX+#@@%===-222222226622raaa-XooO$$$$$$$$-882222222222>===;2222",
"Oooo+@@@%***-222222228886raas-Xooo@@@@#$##=852222222222-&**-2222",
"Oooo+@@@%***-222222228886raaa-Xooo@@@@####-866522222222;&**-2222",
"oooX+#@@%*=*-222222228886raaa-Xooo@@@@####=886886222265;***-2222",
"OooX+#@@%***======-=-28888889*oooo@@@@####=88688882;---=====----",
"oooo+#@@%***********=28882228&oooo@@@@####=88888882=============",
"oooo+#@@%=***=****=*=58886228&Xooo@@@@####=88888882-===========*",
"oooo+#@@%***********=12222222%Xooo@@@@####=22222222=========**=*",
"ooooooooooOOOOoOoOOOO+++@@+@@oXooooooooooo+@@@@@@@@++OO+OoO++++O",
"oXooXoooXXXooXXXXXXoXXXXXXXXXXXoXXXXXoXXoXXXXXXXXXXXXXXXXXXXXXoo",
"oXoooooooXoooXXXXXXXXXXoooooooooXXoooooooooXXoXXXXXXoXXXXXXXXXoX",
"OoooooooooXooooooooooooooX...........XXX...XXXXX.XXXoXXoooooooOo",
"&%&%>wq9qqqqqqqq999q1oooo=8888888888888888888888881oXoo=>>-1qqqq",
"===&qkjgkkkkkkkkjiasqoooX8kjkkjjjjjjjjjkjjjjjjjjhja+Xoo;q88rgfff",
"=*=&9jgghkkkkjjkguaa9oooo8jhjjjhhhhhjjjjjhhghhhgggu+Xoo-988rfffs",
"=&&&9ggfhjjjjkjjguua9oooo8jhjjjhhgghjjjjjjhhjhgfffy+ooo-888efffs",
"$@##=1<<;=-=>qqq9888>oooo5dsfy88888888888999992;;;-oooo%--=>qqqq",
"@+++$&%%#@@@%21>1222-oooo2ssdr2222222222222222;***&oooo%===;8898",
"@+++$&&%#@@@%2212222-Oooo5fdfr2222222222222222;=**&oooo%===;9998",
"@+++$*&%$@@@%2212222-oooo5fffr2222222222222222:=*=*oooo%===;qqqq",
"@O++@$##@@@@#***=222:Oooo-qwe92222222>--------====*oooo%===-<<<<",
"@O+++@++@@@+@###%888>oooo=22222222222>*****=*=====*oooo$=**=====",
"@O+++@@@@@@+@###%858>oooo=22222222222>*===========*oooo$=======*",
"@++++++++@++@###%555>oooX=22222222222>**==========*oooo$=****==*",
"@oooooooOOOO+@@@@$##@oooo@##########$#@@@@@@@@@@@@@oooo+@@@@##@@",
"ooooXooooooooooooXXXXoooooXXXXXXXXXXXXXXXooooXXXXXXoooooXXXXooXX",
"ooooooooooooooooooooXooooooooXXooooXoooooooooooooooooooooooooooo",
"OooooooooooooooooooooooooooooooooooooooooooooXXXoXooXXXooooooooo",
"o                               .   .   ..             ...  .  ."
};
