/* XPM */
static char *result[] = {
/* columns rows colors chars-per-pixel */
"64 64 60 1 ",
"  c #454D46",
". c #384339",
"X c #384439",
"o c #384338",
"O c #394338",
"+ c #384438",
"@ c #374338",
"# c #374339",
"$ c #364036",
"% c #6E736D",
"& c #2C382D",
"* c #203021",
"= c #202F21",
"- c #203022",
"; c #1E2D1F",
": c #59625A",
"> c #2C392D",
", c #213122",
"< c #213022",
"1 c #1E2E1F",
"2 c #59625B",
"3 c #2D392E",
"4 c #213021",
"5 c #5A635B",
"6 c #213123",
"7 c #5A625A",
"8 c #2D3A2E",
"9 c #2C392E",
"0 c #213222",
"q c #213121",
"w c #1E2E20",
"e c #5A625B",
"r c #2D392D",
"t c #5A635C",
"y c #59635A",
"u c #5A635A",
"i c #203122",
"p c #203121",
"a c #5B635B",
"s c #1F2E1F",
"d c #5B625B",
"f c #213223",
"g c #223223",
"h c #223222",
"j c #223123",
"k c #223122",
"l c #1F2F20",
"z c #2C362C",
"x c #1F2C1F",
"c c #202D20",
"v c #202D21",
"b c #1F2D21",
"n c #1F2D20",
"m c #1F2C20",
"M c #1F2C21",
"N c #202C20",
"B c #202C21",
"V c #1E2A1E",
"C c #5B625C",
"Z c white",
/* pixels */
" .Xo.O.o...XX..Xo..X+XX.o@o+@oooooo@.ooX...oo++@@@...X##ooXXo@$%",
"&**=****-***********************-*******-*********************;:",
">,,,,,,,,,,,,,,,,,,,,,,,,,,,,,,,,,,,,,,,,,,,,,,,,,,,,,<,,,,,,,12",
"3,,,,,,,,,,,,,,,,,,,,4,,,,,,,,<,,,,,<,,,,,,,,,,<,,,,,,,,,,,,,,15",
"3,6,,,,,,,,<,,,,,,,,,<,<,<,-4,,,,,,,,,,,,,,,,,,,,,<,,,,,,,,,,,17",
"8,,,,,,,,,,,,<,,,,,,,,<<,,,<,,,,,,,,,,<<,,,,,,,,,,,,,,,,,,,,,,15",
"3,,,,,,,,,,,,,,,,<<,,,,<,<,,,,,,,,,,<,<<,,,,,,,,,,,,,,,,,,,,,,15",
">,,6,,,,,,,,,,,,,,,,,,,,,,,,,,,,,,,,<,,,,,,,,,,,,<,,,,,,,,,,,,17",
"9,,,,,,,,,,,,,,,,,,,,,,,,,,,,,,,,,,,,,,,,,,,,,,<,,,,,,,,,,,,,,17",
"3,,,,0,,,,,,,,,,,,,,,,,,,,,,,,,,,,,,,,,,,,,,,,,,,,,,,q,,,,,,,,w7",
"3,,,,,,,,,,,,,,,,,,,,,,,,,<-,,,,,,,,,,<,,,<,,,,,,,<,,,,<<,,,,,w7",
"3,,6<,,,,,,,,,,,,,,,,q,,,,,4,,,,,,,,,,,,,,,,,,,,,,,,,,,,,,,,,,17",
"3,66,,,,,,,,,,,<,,<<q<,,,<<,,,,,,<,<<,,q,<<,,,,,,,,,,,,,,,,,,,15",
">,6,,,,,,,,,,,,,,,<,,,,<,<<<,,,,,,<,,<<<<,,,,,<,,,,,<<,,,,,,,,1e",
"9,,,,,,,,,,,,,,,,,,,,,,<444<,,,<,,<<<4,,<<,,,,<<<<<,,,<,,,,,,,1e",
"9,,,,,,,,,,,,,,,,<,,,,,,4qq,qq<,,,<<<<,<,<,,,,,<,,,,,,<,,,,,,,17",
">,,,,,,,,,,,,,,,,,<,,,,,,,,<,,,<,<,,,,<,,,,<,qq,,,,,,,<,<,,,,,1:",
"r,,,6,,,,,,,,,,,,,,,,,,<,,,<,,<<,<<,,,,<,,<<,,,,,,<<,,,<,,,,,,w:",
"3,,,,,,,,,,,<,,,,,,,,,,,,<q,,,,<,<,,<,,<,,<<,<,,<,<<<,,,,,,,,,17",
"3,<,,6,,,,,,,,,<,,,,,,,,<<<,,,,<,,<,<<<,,,,,,,<,,,,<,,,,,,,,,,15",
"3,<,,,,,,<,,,,,,,,,,,,,,,,,,,,,,,,,,,,<,,,,,,,,,,<<,,,,,,,,,,,15",
"3,,,,,,,,,,,,,,,,,,,,,,,,,,,,,,,,,<,,,<,<,,,,,,,,,,,,,,<,,,,,,wt",
"3,,,,,,,,,,,q,,,,,,,,,<,,,,,,,,,,,,,,,<<<,,,,,,,<,,,,,,,,,,,,,1e",
"3,,6,,,,,,,<,,,,,,,,,,,,,<<,,<,,,,,,,q,,,,,,,,,,,,,,<,,,,,,,<,w5",
"3,,,,,,,,,,,,,,,,,,,,,,,,q,<,,q,,,,,,,,,<,,,,,,,,,,,,,,,,,,<,,;y",
"3,,,66,,,,,,,,,,,,,,,,,,,,,,,,,,,,,,,,,,,,,,,,,,,,,,,,,,,,,,,,12",
"r,,,,,,,,,,,,,,,,,,,,,,,,,,,,qq,,,,,,,,,,,,,,,,,,,,,,,,,,,,,,,1:",
"3,,,,,,,,,,,,,,,,,,,,,,,,,,,,,,,,,,,<,,,,,,,,,,,,,,,,,<,,,,,,,17",
"3,,,,,,,,,,,,,,,,,,,,,,q,,,,,,,,,,,,,,,,,,,,,,,,,,,,,,,,,<,,,,1:",
"3,,666,,,,,,,,,,,,,,,,,,,,,,,,,,,,,,,,,,,,,,,,,,,<<<,,,,,,,,,,17",
"3,6,6,,,,,,,,,,,,,,,,,,,,,,,,,,,,,,,4,,,,,,,,,,,,,<<,,,,,,,,,6w7",
"3,6,,,,,,,0,,6,,,,,,,,,,,,,<,,,,,<<,,,,,,,,,,,,,,,,,,,,,,,,,,,we",
"8,,,,,,,,,,,,,,,,,,,,,,,,,,,,,,,,,,,,,,,,,,,,,,,,,,,,,,,,,,,,,w5",
"8,66,,,,,,,,,,,,,,,,,,,,,,,,,,,,,,,,,q,,,,,,,,,,,,,,<,,,,,,,,,wu",
"8,66,,,,,,,,,,,,,,,,,,,,,,,,,,,,,,,,,,,,,,,,,,,,,,,,,,,,,,,,,,1u",
"8,,,,,,,,,,,,,,,,,,,,,,,,,,,,,,,,,,,,,,,,,,,,,,,,,,,,,,,,,,,,,17",
"9666,,,,,,,,,,,,,,,,,,,,,,,,,,,,,,,,,,,,,,,,,,,,,,,,,,,,,,,,,,w5",
"3,6,,,,,,,,,,6,,,,,,,<,,,,,,,,,<,,,,<,,,,,,,,,,,,,,,,,,,,,,,,,we",
"9,666,,6,,,,,,,,,,,,,,<,,,,,,,,,,,,,,,,,,,,,,,,,,,,,<,,,,,,,,,wu",
"3,666,,,,,,,,,,,,<,,,,,,<,,,,,,,,,,,,,,,,,,,,,,,,,,,<,,,,,,,,,1:",
"9i66,,,,,,,,,,,,,,,,,,<4,<,,,,,,,,,,,,,,,,,,,,,,,,,,,,,,,,,,,,1:",
"8,66,6,,,,,,,,,,,,,,,,<<q,,,,,,,,,,,,,,,,,,,,,,,,,,,,<,,,,,,,,1:",
"3,6,,,,,,,,,,,,,,,,,,,,,,,,,,,,,,,,,,,,,,,,<,,,,,,,,,,,,,,,,,,we",
"3,,,,6,,,,,,,,,,,,,,,,,,,,,,,,,,,<<,,,p,,,,,,,,,,,,,,,,,,,,,,,w5",
"3,,,,,,,,,,,,,,,,,,,,,,,,,,,,,,,,,<,,,,,,,,,,,,,,,,,<,,,,,,,,,wa",
">,6,,,,,,,,,,,,,,,,,,,,,,,,,,,<,,,<,,,,,,<,,,,,,,,,,,,,,,,,,,6we",
">,,,,,,,,,,,,,,,,,,,,,,,,,,<,,,,,,,,,,,,q,,,,,,,,,,,,,,,,,,,,,se",
"9,,,,,,,,,,,,,,,,,,,,,,,,,,,,,,q,,,,,,,,,,,,,,,,,,,,,,,,,,,,,,1d",
">,,,,,,,,,,,,,,,,,,,<,,,,,,,,,,,,,,,,,,,,,,,,,,,,,,,,,,,,,,,,,wd",
"><,,,,6,,,,,,,,,,,,,,,,,,,,,,,,,,,,,,,,,,,,,,,,,,,,q,,,,,,,,,,w5",
"r,,,,,,,,,,,,,,,,,,,,,,,,,,,4,,,,,,,,,,,q,,,,,,,,,,<,,,,,,,,,,w7",
">,,,,,,,,,,,,,,,,,,,,,,,,,,,qq,,,,,,,q<<,,,,,,,,,,,,,,,,,,,,,,w5",
"9,,,,,,,,,,,,,,,,,,,,,,,,,,,,,,<,,,,,,,,,,,,,,,,,,,,,,,,,,,,,,1u",
">,,,,,,,,,,,,,,,,,,,,,,,,,,,,,,,,,,,,,,,,,,,,,,,,,,,,,,,,,,,,,1e",
"&,,<<,,,,,,,,,,,,,,,,,,,,,,,,,,<,,,,,,,<<,,,,,,,,,,,,,,,,,,,,,1e",
"9,,,,,,,,,,,,,,,,,,,,,,,,,,,,,,,q,,,,,,,,,,,,,,,,,q,,,,,,,,,,,15",
"9<,6,,,,,6,,,,,,,,,,,,,,,<,,,,,,,,,,,,,<,,,,,,,,,,,,,,,,,,,,,,w5",
"><6,,,,,,,,,,,,,,,,,,,,,,,,,,,,,,,,,,,,<,,,,,,<,,,,,,,,,,,,,,,15",
">-,,,,,<,,,,,,,,,,,,<,,,,,,<,,,,,,,,<,,,,,,,,,,,,,,,,,,,,,,,,,15",
">-,,,,,<,,,,,,,,,,,,,,,,,,,,,,,,,,,,,,,,,,,,,,,,,,,,,,,,,,,,,,17",
"><,,,,,,,6,,,,,,,,,,,,,,,,,,,,,,,,,,,,,,,,,,,,,,,,,,,,,,,,,,,,1e",
"&<,,6,666,,,,6,,6,,,,,,,,,,,,,,,,,,<,,,,,,,,,,,,,,,,,,,,,,,,6fwe",
"r*,6g,hj6jk,,66,,,,,,,0,,,,,,,,,,,,,,,,66,,6,,,,,,k,60,,,,fgjgl5",
"zxcvbnmvbmmcvMvMNcmmbcnmccnnmcvnmmmMmmncmmmNcnnNvbcBmnmcnvbnncVC"
};
